<?xml version="1.0" encoding="utf-8"?>
<!-- Generator: Adobe Illustrator 19.0.0, SVG Export Plug-In . SVG Version: 6.00 Build 0)  -->
<svg version="1.1" id="Layer_1" xmlns="http://www.w3.org/2000/svg" xmlns:xlink="http://www.w3.org/1999/xlink" x="0px" y="0px"
	 viewBox="-1004 226.2 4251 340.8" style="enable-background:new -1004 226.2 4251 340.8;" xml:space="preserve">
<style type="text/css">
	.st0{fill:#15182E;}
</style>
<g id="XMLID_20_">
	<path id="XMLID_140_" class="st0" d="M408.5,468.5c2.7,0.2,5.4,0.4,8.1,0.5c0.2,0.6,0.4,1.2,0.5,1.8c0.2,0.1,0.5,0.3,0.7,0.3
		c1.6,0,3.2,0.1,4.8,0.1c2.3,0,4.6-0.2,6.9,0.6c0.7,0.2,1.4,0.1,2.1,0.1c1.5,0.2,3,0.4,4.5,0.6c0.3,0,0.6,0.2,0.9,0.2
		c4.3,0.3,8.6,0.5,12.9,0.8c1.3,0.1,2.5,0.3,3.8,0.5c0.2,0,0.5,0.1,0.7,0.2c3.2,0.3,6.3,0.8,9.5,0.9c4.2,0.1,8.2,0.7,12.3,1.4
		c0.2,0,0.3,0.1,0.5,0.1c3.4-0.1,6.7,0.3,10,0.8c3.5,0.6,7.1,1,10.6,1.4c1.6,0.2,3.2,0.2,4.8,0.2c1.9,0,3.6,0.3,5.4,0.9
		c1.3,0.4,2.6,0.5,4,0.7c1.5,0.2,2.6-0.4,3.9-1.4c2.3-1.8,5-2.4,7.8-1c0.7,0.3,1.5,0.4,2.3,0.3c2.2-0.3,4.4-0.4,6.6,0.3
		c0.6,0.2,1.3,0.3,1.9,0.3c2.3,0,4.6,0.3,6.9,0.6c2.9,0.4,5.8,0.5,8.8,0.9c4.5,0.7,9,1,13.5,1.5c0.7,0.1,1.4,0.1,2.1,0.1
		c3.1,0,6.2,0.1,9.4,0c2-0.1,3.9-0.4,5.9-0.6c0.8-0.1,1.6-0.1,2.4-0.1c8,0,16,0,24,0c0.9,0,1.7,0,2.9,0c0.6-3.6,0-7.1,0.4-10.7
		c0.6-0.1,1.2-0.2,1.8-0.2c3.5-0.2,7,0.4,10.5-0.7c1.2-0.4,2.7-0.1,4.1-0.1c0.9,0,1.7,0,2.8,0c0.1-2.1,0.2-4,0.3-6
		c2.9-0.3,5.6-0.8,8.4-1c2.8-0.2,5.6,0,8.4,0c0.8,0,1.6-0.1,2.3-0.1c0.3-1.8,0.5-3.5,0.9-5.1c0.7-2.6,1.9-3.3,4.5-3.4
		c1.9,0,3.8,0.1,5.8,0c1.2,0,2.4-0.3,3.5-0.4c2.3-0.2,4.6-0.4,6.9-0.5c2.1-0.1,4.2,0.1,6.2,0.1c1.6,0,2.6-0.9,3.4-2.5
		c0.1,1.5,0.9,1.9,2.1,1.8c0.5,0,1,0.1,1.4,0c5.3-0.7,10.6,0.4,15.9,0c0.5,0,1.1,0.1,1.9,0.2c0,1.4,0,2.7,0,4c0,2.9,0.6,3.5,3.5,3.6
		c4.7,0,9.4,0,14.2,0c2.4,0,4.8,0.2,7.1,1.1c2.5,0.9,4.1-0.6,3.5-3.2c-0.5-2.4-1.1-4.8-1.5-7.2c-0.9-5.6,0.5-10.8,3.6-15.5
		c3.3-5,7.5-9.1,12.3-12.7c5.1-3.8,10.5-7,16.2-9.7c0.3-0.1,0.5-0.3,0.8-0.4c-0.5-3.8,0-7.5,0.2-11.3c0.9,0.8,1,1.8,0.9,5.4
		c-0.1,1.9,0.2,3.7,0.3,5.8c0.4,0.2,0.8,0.5,1.3,0.8c5.6,2.7,10.8,6,15.2,10.3c4.2,4.1,8.3,8.4,10.7,14c0.5,1.1,1.5,2,1.7,3.1
		c0.7,2.8,1.4,5.7,1.5,8.6c0.1,2.6-0.3,5.3-1,7.8c-0.6,2.3-0.8,4.5-0.9,6.8c-0.1,1.9,0.1,2.1,2,2.2c5.3,0.3,10.6,0.7,15.9,0.9
		c1.5,0.1,3-0.2,4.5-0.2c1.7,0,3.5,0.1,5.2,0.1c1.4,0.1,2.9,0.1,4.3,0.3c2.4,0.4,4.8,0.9,7.3,1.4c2.7,0.5,5.4,1.3,8.2,1.6
		c1.6,0.2,3.3-0.2,4.9-0.3c0.9,0,1.8,0,2.8,0c0.7,0,1.4,0.1,2.1,0.1c0.4,0,1,0,1.1,0.1c0.7,1.4,1.9,0.9,2.9,0.9
		c1.8,0.1,3.7,0.1,5.5,0c1.5-0.1,3-0.5,4.4-0.7c1.5-0.1,3-0.3,4.5-0.1c4.6,0.7,15.8,1.2,19.8,0.6c0.8-0.5,0.3-2,1.8-1.9
		c1.2,0.1,1.2,1.1,1.5,1.8c2.8,0.6,4.2,0.5,6.1-0.4c1,0.7,1.7,0.9,4.4,1c2.2-1.9,0.8-4.6,1.5-7c4.1-0.5,8.3,0.3,12.5-0.5
		c0.4-2,0.4-3.9,0-5.8c-1-4.7-1.1-9.3,0.3-14c1.4-4.4,4.2-7.8,7.2-11.2c6.4-7,13.7-12.7,22-17.2c0.4-0.2,0.8-0.5,0.9-0.6
		c0.1-2.1,0.4-3.9,0.3-5.8c-0.1-1.9-0.1-3.8,0.6-6.2c0.3,0.8,0.6,1.1,0.6,1.4c0,2.4-0.2,4.8-0.1,7.2c0,1,0.6,1.9-0.3,2.9
		c1.4,0.9,2.6,1.6,3.7,2.5c3.6,2.6,7.2,5.2,10.9,7.9c0.5,0.4,0.9,0.9,1.4,1.3c1.5,1.6,2.8,3.3,4.4,4.7c3.3,3,6.1,6.4,7.9,10.4
		c2.8,6.6,3.4,13.4,1.4,20.3c-0.6,2.1-0.6,4.2-0.4,6.7c2.4-0.2,4.6-0.4,6.9-0.7c1.5-0.2,3.1-0.4,4.6-1c0.7-0.3,1.6-0.1,2.3-0.2
		c0.9-0.1,1.8-0.2,2.7-0.4c0.2,0,0.5-0.2,0.7-0.1c1.8,1.2,3.6,0.1,5.5,0.2c0.2-0.9,0.4-1.7,0.6-2.8c0.2,0.5,0.4,0.8,0.5,1.1
		c0.1,0.4,0.1,0.8,0.1,1.2c4.7,0.9,9-1.3,13.4-1.3c1.1-2.3,1.1-2.3,3.5-2.2c0.7,1.8,1.8,2.2,3.8,1.9c2.5-0.4,5,0.1,7.6,0.3
		c1.6,0.1,3.2,0.5,4.9-0.5c0-2.5,0-5,0-7.6c0-0.3-0.1-0.7-0.3-0.9c-2.1-1.4-1.9-4.1-3.1-6c-0.3-0.4-0.2-1.2,0-1.6
		c1.1-1.7,1.3-4.1,3.7-4.7c0.1-1.8,0.3-3.5,0.2-5.1c-0.1-1.1-0.5-2.2-1-3.1c-1.1-2.1-1.4-4.2-0.3-6.2c1.8-3.1,1.4-6.1,0.3-9.2
		c-0.2-0.7-0.5-1.3-0.8-2.2c1.7-0.2,2.1-1.3,2.1-2.8c0.1-8.3,0.2-16.6,0.3-24.9c0.3-12.7,0.7-25.4,1-38.1c0.2-6.5,0.3-12.9,0.5-19.4
		c0-0.9-0.1-1.7-0.6-2.5c-1-1.6-2-3.2-2.8-4.8c-0.6-1.2-0.7-2.6-1-4c1-0.3,1.5-0.9,1.5-2.1c0-3.4,0.1-6.9,0.2-10.3
		c0-1-0.1-1.8-1-2.5c-0.7-0.6-0.9-1.8-1.4-2.8c1.2-0.3,2.2-0.6,3.3-0.9c0-1.2,0.1-2.4,0-3.6c-0.1-2,0.4-3.6,2-4.9
		c1.3-1,1.6-2.3,1.5-3.8c-0.1-3.7-0.1-7.5-0.2-11.3c0-0.7-0.1-1.4-0.4-2.1c-1.1-3-0.5-5.7,1.2-8.2c1.3-2.1,3-4,5.2-5.2
		c0.5-0.3,1.1-0.7,1.3-0.9c0.2-2.4,0.6-4.5,0.4-6.6c-0.2-3,0.3-5.9,0.5-8.9c0.2-1.9-0.2-3.9-0.3-6.3c0.4-0.5,1.1-0.5,2.1,0.3
		c-1.3,2.6-0.9,5.5-0.7,8.3c0.1,1.7-0.6,3.5,0.4,5.1c-0.9,2.6,0,5.3-0.7,8c2.5,1.5,4.5,3.4,6.1,5.8c1.9,2.9,2.1,5.9,1.1,9.1
		c-0.4,1.2-0.4,2.6-0.5,4c-0.3,3.2-0.1,6.4-0.2,9.7c0,1.4,0.2,2.5,1.3,3.4c1.4,1.2,2,2.8,1.6,4.7c-0.2,0.8-0.1,1.6,0,2.4
		c0.1,1,0.4,1.8,1.6,1.7c1.3,0,1.9,0.7,2.1,1.8c0.1,1.1-0.6,1.8-1.7,1.9c-0.1,0-0.3,0.2-0.7,0.5c0,2.3,0,4.9,0,7.4
		c0,1.4-0.1,2.9,0,4.3c0,0.5,0,1.2,0.3,1.3c1.4,0.7,1.5,1.6,0.6,2.8c0.8,1.9-0.8,3.2-1.6,4.3c-2.8,3.7-2.9,7.8-2.5,12.1
		c0.2,2.6-0.1,5.2,0,7.9c0.1,6.4,0.1,12.8,0.3,19.2c0.1,4.1,0.4,8.1,0.5,12.2c0,0.6,0,1.1,0,1.7c0,5,0,10.1,0.1,15.1
		c0.1,6.3,0.3,12.6,0.4,18.9c0,0.8,0,1.6,0,2.4c0.7,0.4,1.2,0.7,1.8,0.9c0,0.3,0,0.6-0.1,0.8c-0.3,1-0.7,2-1.1,2.9
		c-0.8,2.4-0.9,4.7,0.4,6.9c1.4,2.5,1.4,5-0.3,7.4c-0.5,0.7-0.6,1.6-0.7,2.5c-0.1,1,0.1,2.1,0,3.1c0,1.2,0.3,2,1.2,2.9
		c1.1,1.2,2.1,2.7,2.4,4.2c0.3,1.3-0.3,2.9-1,4.1c-0.6,1.1-0.5,2.7-2.1,3.3c-0.3,0.1-0.5,1-0.5,1.5c-0.1,1.8,0,3.7,0,5.6
		c1.6,0.5,3,1.6,4.9,0.8c0.9-0.4,2.1,0.1,3.6,0.3c-0.6-1.2-1-2.1-1.6-3.4c2.1,1,2.6,3.8,5.4,2.7c0.2-2.4,0.4-5,0.7-7.5
		c0.2,0,0.4,0,0.6,0c0,2.5,0,5,0,7.3c1.6,0.1,2.9,0.4,4.2,0.3c1.4-0.1,2.7-0.5,4.3-0.9c0.1,0.1,0.3,0.5,0.7,1
		c0.3-0.2,0.6-0.3,0.6-0.5c0.1-1,0.2-2.1,0.2-3.1c0-1.7-0.1-3.3-0.3-5c-0.1-1.6-0.3-3.2-0.4-4.7c-0.1-1-0.3-2.1,0-3.1
		c0.5-1.8,0.1-3.3-0.9-4.7c-0.8-1.1-1.3-2.3-1.5-3.7c-0.7-3.7-1.8-7.3-2.3-11c-0.9-7.4-0.4-14.6,2.1-21.7c1.6-4.5,3.7-8.6,6.3-12.6
		c7.7-12.3,17.4-22.9,28.1-32.6c3.8-3.4,7.9-6.3,12.1-9c1.7-1.1,2-2.4,1-4c-0.6-0.9-0.7-1.5-0.2-2.4c0.9-1.7,0.9-1.9-0.2-3.7
		c0.3-0.7,1-1.4,0.9-2.1c-0.3-1.7-0.5-3.4,0.4-5c-1.4-1.3,0.4-2.7,0-3.8c-0.6-1.5,0.1-2.8,0.4-4.1c0.4,1.3,1.1,2.4,0.5,3.9
		c-0.2,0.5,0.2,1.2,0.3,1.8c0.1,0.4,0.3,0.9,0.2,1.3c-0.4,1.9-0.4,1.9,0.6,3.6c-0.7,1.1-1.5,2.4-0.2,3.7c0.2,0.2,0.2,1-0.1,1.3
		c-0.8,1.1-0.6,2,0.1,3c0.6,0.8,0.7,1.6-0.1,2.6c-1,1.4-0.6,2.9,0.8,4c7.8,5.7,15.6,11.5,22.3,18.5c4.4,4.6,8.9,9.2,12.7,14.3
		c3.6,4.8,6.7,10,9.4,15.3c6.3,12.5,6.2,25.5,2,38.7c-0.3,1.1-0.6,2.2-1.2,3.1c-2.3,4.1-2.3,8.5-1.6,13c0.3,2-0.1,4-0.1,6
		c0,0.7-0.1,1.5,0,2.2c0.2,1.2,1.3,1.5,2.1,0.6c0.6-0.7,1.3-1.4,1.1-2.5c-0.1-0.9,0-1.7,0-2.6c0-0.1,0.1-0.1,0.2-0.3
		c0.7,0.7,0.6,1.6,0.4,2.4c-0.4,1.3,0.3,1.8,1.5,1.9c0.1-0.4,0.1-0.9,0.2-1.7c0.8,1.1,1.4,2,2.1,3.1c1.4-2.4-0.2-5.1,1-7.7
		c1.4,2.9,1.7,5.5,2,8.2c0.2-1.3,0.5-2.7,0.7-4c0.1,0,0.2,0,0.2,0c0,1.1,0.1,2.2,0.2,3.7c0.9-1,1.5-1.8,2.1-2.6
		c0.1,0.1,0.2,0.1,0.3,0.2c-0.6,1.3-1.1,2.5-1.8,3.9c2.3,1.1,3.2-1.5,5.1-1.5c0.2,1.3-1.6,1.2-1.8,2.4c2.2,0.5,4.2-0.3,6.5-1.2
		c0-2.6,0-5.3,0-7.9c0-0.3-0.2-0.7-0.4-0.8c-1.8-1.3-1.9-3.5-2.9-5.3c-0.5-0.8-0.7-2,0.4-3c1-0.9,1.6-2.3,2.5-3.5
		c0.1-0.2,0.4-0.4,0.4-0.6c-0.1-2.7,1-5.6-0.8-8.2c-1.3-2-1.6-4.3-0.5-6.4c1.6-3,1.4-5.8,0.3-8.8c-0.3-0.7-0.5-1.5-0.8-2.4
		c0.6-0.3,1.2-0.6,2-1c0.1-6,0.3-12.1,0.4-18.2c0.2-14,0.3-28,0.5-42c0.1-6.9,0.5-13.9,0.8-20.8c0-0.9-0.1-1.8,0-2.6
		c0.3-2.1-1.1-3.5-1.8-5.2c-0.4-1-1.4-1.7-1.8-2.6c-0.3-0.8,0-2-0.4-2.7c-0.7-1.2-0.2-1.7,0.7-2.3c0.3-0.2,0.4-1,0.4-1.5
		c-0.1-1.6-0.3-3.1-0.5-4.7c0-0.5-0.1-0.9,0-1.4c0.1-1.5,0.5-3,0.4-4.5c0-0.7-0.5-1.6-1-2c-0.8-0.6-1.2-1.2-1-2.2
		c0.2-1.1,1.1-1.3,2-1.3c0.2,0,0.3-0.1,0.7-0.2c0-1.2,0.1-2.6,0-3.9c-0.2-1.8,0.4-3.4,1.8-4.5c1.5-1.2,1.9-2.7,1.8-4.6
		c-0.2-3.7-0.2-7.3-0.4-11c0-0.8-0.3-1.5-0.6-2.3c-0.9-2.7-0.7-5.3,0.9-7.8c1.8-2.7,4.1-4.9,6.7-6.6c0.1-2.3,0.6-4.5,0.2-6.6
		c-0.2-1.5,0.1-2.6,0.3-3.9c0.2-1.3,0-2.7,0-4.1c0-2.4,0-4.8,0-7.3c0.4,0,1.1,0,1.9,0c-1.1,3.1-0.6,6-0.6,8.9c0,2,0.3,4.1-0.1,6.2
		c-0.4,2.1-0.1,4.4-0.1,6.4c2,2.1,4,4,5.8,6c2.4,2.8,2.7,5.9,1.7,9.4c-0.6,2.1-0.6,4.4-0.8,6.5c-0.1,2.4,0,4.8-0.1,7.2
		c0,1.3,0.3,2.5,1.5,3.3c1.5,1.1,2.2,2.6,2,4.6c-0.2,1.3,0,2.7,0,4c1.1,0.3,1.9,0.5,3,0.7c-0.3,0.9-0.4,2.1-0.9,2.5
		c-1.5,0.9-1.3,2.3-1.2,3.6c0,1.6,0.3,3.1,0.3,4.7c0,1.7-0.1,3.3-0.3,5c-0.1,1.1,0.5,1.6,1.4,1.7c0.1,2.7-1.1,4.8-2.5,6.9
		c-1.5,2.2-2.2,4.5-2.2,7c0.1,4.2,0.2,8.4,0.2,12.6c0.1,5.4,0.1,10.7,0.2,16.1c0.1,8,0.3,16.1,0.5,24.1c0.1,5,0.1,10.1,0.2,15.1
		c0.1,3.9,0.2,7.8,0.3,11.7c0.1,2.5,0.1,2.5,2.4,3.5c-0.5,1.8-1,3.7-1.7,5.5c-0.5,1.5-0.3,2.8,0.2,4.2c0.4,0.9,0.7,1.8,1.1,2.7
		c0.7,2.1,0.6,4.1-0.9,5.9c-1.8,2.2-1,4.7-0.9,7.2c0,0.4,0.8,1,1.4,1.1c1.2,0.3,1.7,1.1,2.1,2c0.3,0.6,0.7,1.2,0.9,1.9
		c0.2,0.6,0.3,1.3,0.1,1.8c-0.6,1.5-0.9,3.5-2.1,4.5c-2.7,2.3-1.1,5.1-1.6,7.5c1.5,0.9,2.8,1.8,4.1,2.6c0.3,0.2,0.7,0.4,1.1,0.4
		c2.9,0,4.9,1.8,6.9,3.6c0.1,0.1,0.3,0.1,0.6,0.2c7.1-4.9,14.4-5.2,21.9-0.5c0.3-0.1,0.6-0.2,0.8-0.4c3.8-3.1,7.7-2,11.6-0.1
		c1.5,0.7,3.1,1.2,4.6,2c1.3,0.8,2.6,1.8,3.6,2.9c1.1,1.1,1.1,1.3,2.5,0.5c1.2-0.8,2.4-1.7,3.6-2.3s2.5-0.9,4.2-1.4
		c-0.1-2.7,0.4-5.6-0.4-8.5c-0.6-2.2-1.1-4.3-1.5-6.5c-1.2-6.7,1.1-12.5,4.8-17.8c4.3-6,9.4-11.3,15.4-15.7c2.7-2,5.9-3.6,8.8-5.3
		c0.5-0.3,1.1-0.7,1.4-0.9c0.1-3.8,0.2-7.4,0.3-11c0.2,0,0.4,0,0.6,0c0.2,3.6,0.4,7.2,0.6,11.2c0.6,0.3,1.5,0.9,2.5,1.4
		c4.1,2,8,4.3,11.4,7.4c0.7,0.7,1.8,1.1,2.5,1.8c2,2,4.2,4,5.8,6.3c2.8,4.2,6.1,8.2,7.3,13.1c1.4,5.5,2,11.2-0.9,16.6
		c-0.8,1.5-0.6,3.2,0.8,5.8c1.9,0,3.8,0,5.7,0c0.5,0,1-0.1,1.4-0.1c1.7,0.1,3.5,0.2,5.2,0.4c1.5,0.2,3,0.4,4.4,0.6
		c1.1,0.1,2.2,0.1,3.3,0.2c0.7,0.1,1.5,0.1,2,0.5c1.9,1.5,3.9,1.1,5.9,0.5c1.3-0.4,2.6-0.8,3.8-1.3c1.7-0.8,3.1-0.6,4.4,0.6
		c1,0.9,2.1,0.9,3.2,1.1c2.5,0.4,5,0.4,7.2,1.9c1.6,1.1,3.6,1.8,5.6,0.4c0.4-0.3,1.3-0.2,1.7,0.1c1.8,1,4.5,1,6-0.3
		c0.7-0.6,1.3-1,2.1-0.5c1.3,0.8,2.6-0.2,3.9-0.3c0.5,0,1.2-0.6,1.5-0.4c1.3,0.8,2.2,0.1,3.2-0.6c0.8-0.7,1.7-1.3,2.7-0.1
		c1.9-0.7,2.7,0.6,3.5,2c0.6-0.1,1.1-0.3,1.6-0.3s1.1,0.2,1.6,0.3c2-1.8,2-1.8,6.9,1.4c3.2-1.9,6.7-0.9,10.2-0.9
		c1.3,1.1,2.3,0.8,3.5-0.3c0.2-0.2,1-0.2,1.3,0c2.3,1.4,4.4,0.4,6.5-0.4c0.7-0.3,1.4-0.7,2-0.5c1.7,0.5,3.1-0.2,4.7-1.1
		c0.1-3.3,0.5-6.8-0.6-10.2c-3.1-9.6-1.2-17.9,5.7-25.5c6.4-7.1,13.9-12.4,22.1-17.1c1.1-0.6,2.6-1,1.3-2.7c0.8-3,0.2-6.1,0.6-9.1
		c0-0.1,0.2-0.2,0.5-0.5c0.2,2,0.4,3.8,0.3,5.7c-0.1,1.8,0.2,3.5,0.4,5.8c0.1,0.1,0.7,0.5,1.3,0.8c4.5,2.5,8.9,5.4,13.1,8.5
		c4,3,7.6,6.3,11,10c3.4,3.7,5,8.3,5.3,13.3c0.2,2.9-0.1,5.7-0.3,8.6c-0.1,1.8-0.2,1.9,1.5,2.8c2.6,1.4,5.2,2.8,7.7,4.4
		c1.5,0.9,2.7,2.2,4.1,3.2c1.3,0.9,2.6,0.7,3.8-0.4c0.4-0.3,0.9-0.8,1.4-0.8c2.8-0.2,5.3-0.9,7.3-3c0.4-0.4,1.1-0.7,1.6-1.1
		c0.7,0.3,1.3,0.6,1.9,0.9c2.3-1.2,2.3-1.2,4.4,0.2c0.6-0.5,1.3-1.1,1.9-1.7c1.2-1.1,1.7-1.2,3-0.1c0.6,0.5,1.2,1,1.9,1.7
		c0.4-1,0.8-1.8,1.2-2.8c3.2,0.1,6.4-0.4,9.6,0.4c0.9,0.2,1.9,0.3,2.8,0.3c2.6,0,5.1,0,7.7,0c2.2,0,4.4,0.1,6.7,0.5
		c2.1,0.4,4.3,0.2,6.5,0.2c2.8,0,3.5,0.7,3.6,3.5c0,0.4,0,0.8,0,1.2c0.1,2.4,0.7,2.7,3,3.2c5.2,1,10.3,0.6,15.5,0.7
		c0.5,0,0.9,0.1,1.7,0.1c0.1,1.7,0.2,3.3,0.3,5c0.4,0.1,0.7,0.3,0.9,0.3c5.4,0.1,10.8,1.2,16.2,0.8c0.6,0,1.2,0.1,2.2,0.2
		c0,4.9,0,9.6,0,14.5c0.9,0,1.4,0,1.9,0c1.5,0.1,3,0.3,4.5,0.4c1,0.1,1.9,0.3,2.9,0.3c4.9,0,9.8,0,14.6,0c2.2,0,4.4,0.2,6.6,0.6
		c3,0.5,6.1,0.3,9.1,0.1c2-0.1,3.4-1.4,3.6-3.6c0.8,0,1.5-0.2,2.2-0.1c3.1,0.3,6.1-0.3,9-1c1.1-0.2,2-1.2,2.8-2
		c0.6-0.7,1-1.6,1.4-2.5c2-3.7,5.3-5.9,9.1-7.4c2.9-1.1,6-1.7,8.8-3.1c2.8-1.5,5.7-1.3,8.6-1.3c1.1,0,2.2,0.3,3.3,0.4
		c0.6,0.1,1.1,0.3,1.6,0.3c3.9-0.2,7.6,1.2,11.2,2.4c1.7,0.6,3.2,0.7,4.8-0.3c1.4-0.9,3-1.3,4.7-1.5c1.4-0.2,2.6-1.1,3.9-1.6
		c2.2-0.9,4.4-1.8,6.6-2.8c1.5-0.6,2.8-1.4,4.3-2c2-0.8,4.1-1.3,6.3-1.3c2.6,0,5.2-0.1,7.8,0.6c2.2,0.5,4.6,0.4,6.8,1
		c3.3,0.9,6.6,2,9.8,3.2c1.9,0.7,3.6,0.8,5.5,0c3.4-1.5,6.9-2.9,10.3-4.4c0.5-0.2,1.1-0.4,1.6-0.4c3.3,0.1,6.6,0,10,0.5
		c5.1,0.7,9.9,2.4,14.7,4.2c2,0.7,3.6,2.3,5.4,3.5c0,31.8,0,63.7,0,95.5c-475.7,0-951.4,0-1427,0
		C408.5,536.7,408.5,502.6,408.5,468.5z M1036.4,310.3c-2,2.7-2.1,4.6-0.6,7.3c1.9-1.5,1.4-3.8,1.5-5.8
		C1037.4,311.3,1036.8,310.8,1036.4,310.3z M1193.2,318.3c1.3-1.2,1.3-1.2,1.5-2.2c0.4-2.4-0.1-2.8-2.7-2.3c0,0.8,0,1.7,0,2.5
		c0.7-0.1,1.2-0.2,2-0.3C1193.8,316.8,1193.6,317.4,1193.2,318.3z M1206.6,291.8c0-2,0-3.9,0-5.9c-1.3,0.5-1.3,0.5-1.4,2.2
		C1205.2,291.3,1205.2,291.3,1206.6,291.8z M1050.2,315.9c1.2-1,2.4-1.4,2.7-2.2c0.3-0.9-0.3-2-0.7-3.6
		C1050.6,312,1050.1,313.6,1050.2,315.9z M1196,285.8c-0.6,2.3-0.6,4.3,0.1,6.4c0.4-0.6,0.9-1,0.9-1.3
		C1196.8,289.2,1197.7,287.4,1196,285.8z M1039.1,285.1c-1,2.4-0.9,4.8,0.2,5.9C1039.7,289,1039.9,287.2,1039.1,285.1z
		 M1199.7,319.8c-0.3-3,0.5-5.5-0.3-8.2c-1.3,2.3,0.2,4.9-0.8,7.3C1198.6,319.1,1199.1,319.3,1199.7,319.8z M1201.8,286.4
		c-0.1,1.7-0.6,3.5,0.2,5.4C1203.3,289.8,1203.2,287.7,1201.8,286.4z M1209.8,314.4c-0.4-1.3-0.8-2.5-1.2-3.7
		c-1.4,1.4-1.6,2.6-0.9,3.7C1208.4,315.2,1209.1,314.8,1209.8,314.4z M1209.7,319.8c0.1-1.1,0.8-2.3-0.5-3.3c-0.5,0.9-1,1.7-1.4,2.6
		c-0.1,0.3,0.2,0.9,0.4,1.1c0.5,0.3,0.9,0,0.9-0.7c0-0.2,0.1-0.4,0.3-1.1C1209.6,319.3,1209.7,319.5,1209.7,319.8z M1044.6,290.6
		c1.2-2.2,1.1-3.9,0-5.3C1044.6,287.2,1044.6,288.9,1044.6,290.6z M1049.2,285.8c-1.2,2-1.2,3.9,0,5.3
		C1049.2,289.2,1049.2,287.5,1049.2,285.8z M1042.7,290.8c0.9-2,0.9-3.2,0-4.8C1042.7,287.6,1042.7,289,1042.7,290.8z M1199.6,291.1
		c0.2,0,0.4,0.1,0.6,0.1c0.1-1.2,0.3-2.5,0.4-3.7C1199.4,288.5,1199.5,289.8,1199.6,291.1z M1045.4,315.6c0.7-1.2,0.7-3.2,0-4.4
		C1045.4,312.9,1045.4,314.3,1045.4,315.6z M1041.7,313.5c0,1.1,0,1.9,0,2.6C1042.1,315.3,1042.7,314.6,1041.7,313.5z M1202.6,319.6
		c0.8-0.6,0.8-1.1-0.1-1.6C1202.5,318.7,1202.6,319.2,1202.6,319.6z M1036.4,317.9c-0.2,0.8-0.4,1.2-0.5,1.8
		C1037.2,319.6,1037.2,319.1,1036.4,317.9z M1166.8,450c-0.1,0-0.1,0-0.2,0c0,0.5,0,1,0,1.6c0.1,0,0.1,0,0.2,0
		C1166.8,451,1166.8,450.5,1166.8,450z"/>
	<path id="XMLID_139_" class="st0" d="M1122.7,302.9c0,2.3,0,4.6,0,7.2c-3.5-1-6.9-1.4-10-3.1c0.8-0.9,1.5-1.8,2.3-2.4
		c0.6-0.5,1.5-0.8,2.3-0.9C1119.1,303.3,1120.8,303.1,1122.7,302.9z"/>
	<path id="XMLID_138_" class="st0" d="M1122.3,324.7c-0.2-0.7-0.4-1.3-0.5-2c0-0.3,0.4-0.7,0.7-1c0.2,0.4,0.6,0.7,0.6,1.1
		c0,0.7-0.3,1.3-0.4,2C1122.6,324.7,1122.4,324.7,1122.3,324.7z"/>
	<path id="XMLID_137_" class="st0" d="M762.3,398.9c-0.3,1.5-1.3,0.9-2.2,0.8C760.3,398.8,760.3,398.8,762.3,398.9z"/>
	<path id="XMLID_136_" class="st0" d="M946.5,401.5c-0.9,1.3-1.5,0.7-2.1,0C945,401.5,945.6,401.5,946.5,401.5z"/>
	<path id="XMLID_135_" class="st0" d="M1305.5,401.6c0.7,0.2,1.3,0.3,1.9,0.4C1306.2,402.7,1306.2,402.7,1305.5,401.6z"/>
	<path id="XMLID_134_" class="st0" d="M1482.2,404.2c-0.4-0.1-0.8-0.3-1.2-0.4c0-0.1,0.1-0.2,0.1-0.3c0.4,0.1,0.8,0.2,1.3,0.3
		C1482.3,403.9,1482.2,404.1,1482.2,404.2z"/>
	<path id="XMLID_133_" class="st0" d="M1036.4,310.3c0.4,0.6,1,1,1,1.5c-0.1,2,0.4,4.2-1.5,5.8
		C1034.3,314.9,1034.4,313,1036.4,310.3z"/>
	<path id="XMLID_132_" class="st0" d="M1193.2,318.3c0.3-0.9,0.6-1.5,0.9-2.4c-0.8,0.1-1.4,0.2-2,0.3c0-0.9,0-1.7,0-2.5
		c2.6-0.5,3.1-0.1,2.7,2.3C1194.5,317.2,1194.5,317.2,1193.2,318.3z"/>
	<path id="XMLID_131_" class="st0" d="M1206.6,291.8c-1.4-0.5-1.4-0.5-1.4-3.7c0-1.7,0-1.7,1.4-2.2
		C1206.6,287.9,1206.6,289.8,1206.6,291.8z"/>
	<path id="XMLID_130_" class="st0" d="M1050.2,315.9c0-2.3,0.4-3.9,2-5.8c0.3,1.5,0.9,2.7,0.7,3.6
		C1052.6,314.5,1051.4,315,1050.2,315.9z"/>
	<path id="XMLID_129_" class="st0" d="M1196,285.8c1.7,1.6,0.8,3.5,1,5.1c0,0.4-0.5,0.7-0.9,1.3
		C1195.4,290.1,1195.4,288.1,1196,285.8z"/>
	<path id="XMLID_128_" class="st0" d="M1039.1,285.1c0.8,2.1,0.6,4,0.2,5.9C1038.1,289.9,1038.1,287.5,1039.1,285.1z"/>
	<path id="XMLID_127_" class="st0" d="M1199.7,319.8c-0.6-0.5-1.1-0.8-1-0.9c1-2.4-0.6-5,0.8-7.3
		C1200.2,314.3,1199.4,316.9,1199.7,319.8z"/>
	<path id="XMLID_126_" class="st0" d="M1201.8,286.4c1.5,1.3,1.6,3.4,0.2,5.4C1201.2,289.8,1201.7,288.1,1201.8,286.4z"/>
	<path id="XMLID_125_" class="st0" d="M1209.8,314.4c-0.8,0.4-1.5,0.8-2.1-0.1c-0.8-1.1-0.5-2.3,0.9-3.7
		C1209,311.9,1209.4,313,1209.8,314.4z"/>
	<path id="XMLID_124_" class="st0" d="M1209.7,319.8c0-0.3-0.1-0.6-0.2-1.5c-0.2,0.7-0.3,0.9-0.3,1.1c0,0.7-0.4,0.9-0.9,0.7
		c-0.3-0.1-0.6-0.8-0.4-1.1c0.3-0.9,0.9-1.6,1.4-2.6C1210.5,317.6,1209.8,318.8,1209.7,319.8z"/>
	<path id="XMLID_123_" class="st0" d="M1044.6,290.6c0-1.7,0-3.4,0-5.3C1045.7,286.7,1045.8,288.3,1044.6,290.6z"/>
	<path id="XMLID_122_" class="st0" d="M1049.2,285.8c0,1.7,0,3.4,0,5.3C1048,289.8,1048,287.8,1049.2,285.8z"/>
	<path id="XMLID_121_" class="st0" d="M1042.7,290.8c0-1.8,0-3.1,0-4.8C1043.6,287.6,1043.6,288.7,1042.7,290.8z"/>
	<path id="XMLID_120_" class="st0" d="M1199.6,291.1c-0.1-1.3-0.2-2.5,1-3.6c-0.1,1.2-0.3,2.5-0.4,3.7
		C1200,291.1,1199.8,291.1,1199.6,291.1z"/>
	<path id="XMLID_119_" class="st0" d="M1045.4,315.6c0-1.4,0-2.7,0-4.4C1046.1,312.4,1046.1,314.4,1045.4,315.6z"/>
	<path id="XMLID_118_" class="st0" d="M1041.7,313.5c0.9,1.2,0.4,1.9,0,2.6C1041.7,315.3,1041.7,314.6,1041.7,313.5z"/>
	<path id="XMLID_117_" class="st0" d="M1202.6,319.6c0-0.4-0.1-0.9-0.1-1.6C1203.5,318.5,1203.5,319,1202.6,319.6z"/>
	<path id="XMLID_116_" class="st0" d="M1036.4,317.9c0.8,1.2,0.8,1.7-0.5,1.8C1036.1,319.1,1036.2,318.7,1036.4,317.9z"/>
	<path id="XMLID_115_" class="st0" d="M1166.8,450c0,0.5,0,1,0,1.5c-0.1,0-0.1,0-0.2,0c0-0.5,0-1,0-1.6
		C1166.7,450,1166.7,450,1166.8,450z"/>
</g>
<g id="XMLID_1_">
	<path id="XMLID_28_" class="st0" d="M1820.5,468.5c2.7,0.2,5.4,0.4,8.1,0.5c0.2,0.6,0.4,1.2,0.5,1.8c0.2,0.1,0.5,0.3,0.7,0.3
		c1.6,0,3.2,0.1,4.8,0.1c2.3,0,4.6-0.2,6.9,0.6c0.7,0.2,1.4,0.1,2.1,0.1c1.5,0.2,3,0.4,4.5,0.6c0.3,0,0.6,0.2,0.9,0.2
		c4.3,0.3,8.6,0.5,12.9,0.8c1.3,0.1,2.5,0.3,3.8,0.5c0.2,0,0.5,0.1,0.7,0.2c3.2,0.3,6.3,0.8,9.5,0.9c4.2,0.1,8.2,0.7,12.3,1.4
		c0.2,0,0.3,0.1,0.5,0.1c3.4-0.1,6.7,0.3,10,0.8c3.5,0.6,7.1,1,10.6,1.4c1.6,0.2,3.2,0.2,4.8,0.2c1.9,0,3.6,0.3,5.4,0.9
		c1.3,0.4,2.6,0.5,4,0.7c1.5,0.2,2.6-0.4,3.9-1.4c2.3-1.8,5-2.4,7.8-1c0.7,0.3,1.5,0.4,2.3,0.3c2.2-0.3,4.4-0.4,6.6,0.3
		c0.6,0.2,1.3,0.3,1.9,0.3c2.3,0,4.6,0.3,6.9,0.6c2.9,0.4,5.8,0.5,8.8,0.9c4.5,0.7,9,1,13.5,1.5c0.7,0.1,1.4,0.1,2.1,0.1
		c3.1,0,6.2,0.1,9.4,0c2-0.1,3.9-0.4,5.9-0.6c0.8-0.1,1.6-0.1,2.4-0.1c8,0,16,0,24,0c0.9,0,1.7,0,2.9,0c0.6-3.6,0-7.1,0.4-10.7
		c0.6-0.1,1.2-0.2,1.8-0.2c3.5-0.2,7,0.4,10.5-0.7c1.2-0.4,2.7-0.1,4.1-0.1c0.9,0,1.7,0,2.8,0c0.1-2.1,0.2-4,0.3-6
		c2.9-0.3,5.6-0.8,8.4-1c2.8-0.2,5.6,0,8.4,0c0.8,0,1.6-0.1,2.3-0.1c0.3-1.8,0.5-3.5,0.9-5.1c0.7-2.6,1.9-3.3,4.5-3.4
		c1.9,0,3.8,0.1,5.8,0c1.2,0,2.4-0.3,3.5-0.4c2.3-0.2,4.6-0.4,6.9-0.5c2.1-0.1,4.2,0.1,6.2,0.1c1.6,0,2.6-0.9,3.4-2.5
		c0.1,1.5,0.9,1.9,2.1,1.8c0.5,0,1,0.1,1.4,0c5.3-0.7,10.6,0.4,15.9,0c0.5,0,1.1,0.1,1.9,0.2c0,1.4,0,2.7,0,4c0,2.9,0.6,3.5,3.5,3.6
		c4.7,0,9.4,0,14.2,0c2.4,0,4.8,0.2,7.1,1.1c2.5,0.9,4.1-0.6,3.5-3.2c-0.5-2.4-1.1-4.8-1.5-7.2c-0.9-5.6,0.5-10.8,3.6-15.5
		c3.3-5,7.5-9.1,12.3-12.7c5.1-3.8,10.5-7,16.2-9.7c0.3-0.1,0.5-0.3,0.8-0.4c-0.5-3.8,0-7.5,0.2-11.3c0.9,0.8,1,1.8,0.9,5.4
		c-0.1,1.9,0.2,3.7,0.3,5.8c0.4,0.2,0.8,0.5,1.3,0.8c5.6,2.7,10.8,6,15.2,10.3c4.2,4.1,8.3,8.4,10.7,14c0.5,1.1,1.5,2,1.7,3.1
		c0.7,2.8,1.4,5.7,1.5,8.6c0.1,2.6-0.3,5.3-1,7.8c-0.6,2.3-0.8,4.5-0.9,6.8c-0.1,1.9,0.1,2.1,2,2.2c5.3,0.3,10.6,0.7,15.9,0.9
		c1.5,0.1,3-0.2,4.5-0.2c1.7,0,3.5,0.1,5.2,0.1c1.4,0.1,2.9,0.1,4.3,0.3c2.4,0.4,4.8,0.9,7.3,1.4c2.7,0.5,5.4,1.3,8.2,1.6
		c1.6,0.2,3.3-0.2,4.9-0.3c0.9,0,1.8,0,2.8,0c0.7,0,1.4,0.1,2.1,0.1c0.4,0,1,0,1.1,0.1c0.7,1.4,1.9,0.9,2.9,0.9
		c1.8,0.1,3.7,0.1,5.5,0c1.5-0.1,3-0.5,4.4-0.7c1.5-0.1,3-0.3,4.5-0.1c4.6,0.7,15.8,1.2,19.8,0.6c0.8-0.5,0.3-2,1.8-1.9
		c1.2,0.1,1.2,1.1,1.5,1.8c2.8,0.6,4.2,0.5,6.1-0.4c1,0.7,1.7,0.9,4.4,1c2.2-1.9,0.8-4.6,1.5-7c4.1-0.5,8.3,0.3,12.5-0.5
		c0.4-2,0.4-3.9,0-5.8c-1-4.7-1.1-9.3,0.3-14c1.4-4.4,4.2-7.8,7.2-11.2c6.4-7,13.7-12.7,22-17.2c0.4-0.2,0.8-0.5,0.9-0.6
		c0.1-2.1,0.4-3.9,0.3-5.8c-0.1-1.9-0.1-3.8,0.6-6.2c0.3,0.8,0.6,1.1,0.6,1.4c0,2.4-0.2,4.8-0.1,7.2c0,1,0.6,1.9-0.3,2.9
		c1.4,0.9,2.6,1.6,3.7,2.5c3.6,2.6,7.2,5.2,10.9,7.9c0.5,0.4,0.9,0.9,1.4,1.3c1.5,1.6,2.8,3.3,4.4,4.7c3.3,3,6.1,6.4,7.9,10.4
		c2.8,6.6,3.4,13.4,1.4,20.3c-0.6,2.1-0.6,4.2-0.4,6.7c2.4-0.2,4.6-0.4,6.9-0.7c1.5-0.2,3.1-0.4,4.6-1c0.7-0.3,1.6-0.1,2.3-0.2
		c0.9-0.1,1.8-0.2,2.7-0.4c0.2,0,0.5-0.2,0.7-0.1c1.8,1.2,3.6,0.1,5.5,0.2c0.2-0.9,0.4-1.7,0.6-2.8c0.2,0.5,0.4,0.8,0.5,1.1
		c0.1,0.4,0.1,0.8,0.1,1.2c4.7,0.9,9-1.3,13.4-1.3c1.1-2.3,1.1-2.3,3.5-2.2c0.7,1.8,1.8,2.2,3.8,1.9c2.5-0.4,5,0.1,7.6,0.3
		c1.6,0.1,3.2,0.5,4.9-0.5c0-2.5,0-5,0-7.6c0-0.3-0.1-0.7-0.3-0.9c-2.1-1.4-1.9-4.1-3.1-6c-0.3-0.4-0.2-1.2,0-1.6
		c1.1-1.7,1.3-4.1,3.7-4.7c0.1-1.8,0.3-3.5,0.2-5.1c-0.1-1.1-0.5-2.2-1-3.1c-1.1-2.1-1.4-4.2-0.3-6.2c1.8-3.1,1.4-6.1,0.3-9.2
		c-0.2-0.7-0.5-1.3-0.8-2.2c1.7-0.2,2.1-1.3,2.1-2.8c0.1-8.3,0.2-16.6,0.3-24.9c0.3-12.7,0.7-25.4,1-38.1c0.2-6.5,0.3-12.9,0.5-19.4
		c0-0.9-0.1-1.7-0.6-2.5c-1-1.6-2-3.2-2.8-4.8c-0.6-1.2-0.7-2.6-1-4c1-0.3,1.5-0.9,1.5-2.1c0-3.4,0.1-6.9,0.2-10.3
		c0-1-0.1-1.8-1-2.5c-0.7-0.6-0.9-1.8-1.4-2.8c1.2-0.3,2.2-0.6,3.3-0.9c0-1.2,0.1-2.4,0-3.6c-0.1-2,0.4-3.6,2-4.9
		c1.3-1,1.6-2.3,1.5-3.8c-0.1-3.7-0.1-7.5-0.2-11.3c0-0.7-0.1-1.4-0.4-2.1c-1.1-3-0.5-5.7,1.2-8.2c1.3-2.1,3-4,5.2-5.2
		c0.5-0.3,1.1-0.7,1.3-0.9c0.2-2.4,0.6-4.5,0.4-6.6c-0.2-3,0.3-5.9,0.5-8.9c0.2-1.9-0.2-3.9-0.3-6.3c0.4-0.5,1.1-0.5,2.1,0.3
		c-1.3,2.6-0.9,5.5-0.7,8.3c0.1,1.7-0.6,3.5,0.4,5.1c-0.9,2.6,0,5.3-0.7,8c2.5,1.5,4.5,3.4,6.1,5.8c1.9,2.9,2.1,5.9,1.1,9.1
		c-0.4,1.2-0.4,2.6-0.5,4c-0.3,3.2-0.1,6.4-0.2,9.7c0,1.4,0.2,2.5,1.3,3.4c1.4,1.2,2,2.8,1.6,4.7c-0.2,0.8-0.1,1.6,0,2.4
		c0.1,1,0.4,1.8,1.6,1.7c1.3,0,1.9,0.7,2.1,1.8c0.1,1.1-0.6,1.8-1.7,1.9c-0.1,0-0.3,0.2-0.7,0.5c0,2.3,0,4.9,0,7.4
		c0,1.4-0.1,2.9,0,4.3c0,0.5,0,1.2,0.3,1.3c1.4,0.7,1.5,1.6,0.6,2.8c0.8,1.9-0.8,3.2-1.6,4.3c-2.8,3.7-2.9,7.8-2.5,12.1
		c0.2,2.6-0.1,5.2,0,7.9c0.1,6.4,0.1,12.8,0.3,19.2c0.1,4.1,0.4,8.1,0.5,12.2c0,0.6,0,1.1,0,1.7c0,5,0,10.1,0.1,15.1
		c0.1,6.3,0.3,12.6,0.4,18.9c0,0.8,0,1.6,0,2.4c0.7,0.4,1.2,0.7,1.8,0.9c0,0.3,0,0.6-0.1,0.8c-0.3,1-0.7,2-1.1,2.9
		c-0.8,2.4-0.9,4.7,0.4,6.9c1.4,2.5,1.4,5-0.3,7.4c-0.5,0.7-0.6,1.6-0.7,2.5c-0.1,1,0.1,2.1,0,3.1c0,1.2,0.3,2,1.2,2.9
		c1.1,1.2,2.1,2.7,2.4,4.2c0.3,1.3-0.3,2.9-1,4.1c-0.6,1.1-0.5,2.7-2.1,3.3c-0.3,0.1-0.5,1-0.5,1.5c-0.1,1.8,0,3.7,0,5.6
		c1.6,0.5,3,1.6,4.9,0.8c0.9-0.4,2.1,0.1,3.6,0.3c-0.6-1.2-1-2.1-1.6-3.4c2.1,1,2.6,3.8,5.4,2.7c0.2-2.4,0.4-5,0.7-7.5
		c0.2,0,0.4,0,0.6,0c0,2.5,0,5,0,7.3c1.6,0.1,2.9,0.4,4.2,0.3c1.4-0.1,2.7-0.5,4.3-0.9c0.1,0.1,0.3,0.5,0.7,1
		c0.3-0.2,0.6-0.3,0.6-0.5c0.1-1,0.2-2.1,0.2-3.1c0-1.7-0.1-3.3-0.3-5c-0.1-1.6-0.3-3.2-0.4-4.7c-0.1-1-0.3-2.1,0-3.1
		c0.5-1.8,0.1-3.3-0.9-4.7c-0.8-1.1-1.3-2.3-1.5-3.7c-0.7-3.7-1.8-7.3-2.3-11c-0.9-7.4-0.4-14.6,2.1-21.7c1.6-4.5,3.7-8.6,6.3-12.6
		c7.7-12.3,17.4-22.9,28.1-32.6c3.8-3.4,7.9-6.3,12.1-9c1.7-1.1,2-2.4,1-4c-0.6-0.9-0.7-1.5-0.2-2.4c0.9-1.7,0.9-1.9-0.2-3.7
		c0.3-0.7,1-1.4,0.9-2.1c-0.3-1.7-0.5-3.4,0.4-5c-1.4-1.3,0.4-2.7,0-3.8c-0.6-1.5,0.1-2.8,0.4-4.1c0.4,1.3,1.1,2.4,0.5,3.9
		c-0.2,0.5,0.2,1.2,0.3,1.8c0.1,0.4,0.3,0.9,0.2,1.3c-0.4,1.9-0.4,1.9,0.6,3.6c-0.7,1.1-1.5,2.4-0.2,3.7c0.2,0.2,0.2,1-0.1,1.3
		c-0.8,1.1-0.6,2,0.1,3c0.6,0.8,0.7,1.6-0.1,2.6c-1,1.4-0.6,2.9,0.8,4c7.8,5.7,15.6,11.5,22.3,18.5c4.4,4.6,8.9,9.2,12.7,14.3
		c3.6,4.8,6.7,10,9.4,15.3c6.3,12.5,6.2,25.5,2,38.7c-0.3,1.1-0.6,2.2-1.2,3.1c-2.3,4.1-2.3,8.5-1.6,13c0.3,2-0.1,4-0.1,6
		c0,0.7-0.1,1.5,0,2.2c0.2,1.2,1.3,1.5,2.1,0.6c0.6-0.7,1.3-1.4,1.1-2.5c-0.1-0.9,0-1.7,0-2.6c0-0.1,0.1-0.1,0.2-0.3
		c0.7,0.7,0.6,1.6,0.4,2.4c-0.4,1.3,0.3,1.8,1.5,1.9c0.1-0.4,0.1-0.9,0.2-1.7c0.8,1.1,1.4,2,2.1,3.1c1.4-2.4-0.2-5.1,1-7.7
		c1.4,2.9,1.7,5.5,2,8.2c0.2-1.3,0.5-2.7,0.7-4c0.1,0,0.2,0,0.2,0c0,1.1,0.1,2.2,0.2,3.7c0.9-1,1.5-1.8,2.1-2.6
		c0.1,0.1,0.2,0.1,0.3,0.2c-0.6,1.3-1.1,2.5-1.8,3.9c2.3,1.1,3.2-1.5,5.1-1.5c0.2,1.3-1.6,1.2-1.8,2.4c2.2,0.5,4.2-0.3,6.5-1.2
		c0-2.6,0-5.3,0-7.9c0-0.3-0.2-0.7-0.4-0.8c-1.8-1.3-1.9-3.5-2.9-5.3c-0.5-0.8-0.7-2,0.4-3c1-0.9,1.6-2.3,2.5-3.5
		c0.1-0.2,0.4-0.4,0.4-0.6c-0.1-2.7,1-5.6-0.8-8.2c-1.3-2-1.6-4.3-0.5-6.4c1.6-3,1.4-5.8,0.3-8.8c-0.3-0.7-0.5-1.5-0.8-2.4
		c0.6-0.3,1.2-0.6,2-1c0.1-6,0.3-12.1,0.4-18.2c0.2-14,0.3-28,0.5-42c0.1-6.9,0.5-13.9,0.8-20.8c0-0.9-0.1-1.8,0-2.6
		c0.3-2.1-1.1-3.5-1.8-5.2c-0.4-1-1.4-1.7-1.8-2.6c-0.3-0.8,0-2-0.4-2.7c-0.7-1.2-0.2-1.7,0.7-2.3c0.3-0.2,0.4-1,0.4-1.5
		c-0.1-1.6-0.3-3.1-0.5-4.7c0-0.5-0.1-0.9,0-1.4c0.1-1.5,0.5-3,0.4-4.5c0-0.7-0.5-1.6-1-2c-0.8-0.6-1.2-1.2-1-2.2
		c0.2-1.1,1.1-1.3,2-1.3c0.2,0,0.3-0.1,0.7-0.2c0-1.2,0.1-2.6,0-3.9c-0.2-1.8,0.4-3.4,1.8-4.5c1.5-1.2,1.9-2.7,1.8-4.6
		c-0.2-3.7-0.2-7.3-0.4-11c0-0.8-0.3-1.5-0.6-2.3c-0.9-2.7-0.7-5.3,0.9-7.8c1.8-2.7,4.1-4.9,6.7-6.6c0.1-2.3,0.6-4.5,0.2-6.6
		c-0.2-1.5,0.1-2.6,0.3-3.9c0.2-1.3,0-2.7,0-4.1c0-2.4,0-4.8,0-7.3c0.4,0,1.1,0,1.9,0c-1.1,3.1-0.6,6-0.6,8.9c0,2,0.3,4.1-0.1,6.2
		c-0.4,2.1-0.1,4.4-0.1,6.4c2,2.1,4,4,5.8,6c2.4,2.8,2.7,5.9,1.7,9.4c-0.6,2.1-0.6,4.4-0.8,6.5c-0.1,2.4,0,4.8-0.1,7.2
		c0,1.3,0.3,2.5,1.5,3.3c1.5,1.1,2.2,2.6,2,4.6c-0.2,1.3,0,2.7,0,4c1.1,0.3,1.9,0.5,3,0.7c-0.3,0.9-0.4,2.1-0.9,2.5
		c-1.5,0.9-1.3,2.3-1.2,3.6c0,1.6,0.3,3.1,0.3,4.7c0,1.7-0.1,3.3-0.3,5c-0.1,1.1,0.5,1.6,1.4,1.7c0.1,2.7-1.1,4.8-2.5,6.9
		c-1.5,2.2-2.2,4.5-2.2,7c0.1,4.2,0.2,8.4,0.2,12.6c0.1,5.4,0.1,10.7,0.2,16.1c0.1,8,0.3,16.1,0.5,24.1c0.1,5,0.1,10.1,0.2,15.1
		c0.1,3.9,0.2,7.8,0.3,11.7c0.1,2.5,0.1,2.5,2.4,3.5c-0.5,1.8-1,3.7-1.7,5.5c-0.5,1.5-0.3,2.8,0.2,4.2c0.4,0.9,0.7,1.8,1.1,2.7
		c0.7,2.1,0.6,4.1-0.9,5.9c-1.8,2.2-1,4.7-0.9,7.2c0,0.4,0.8,1,1.4,1.1c1.2,0.3,1.7,1.1,2.1,2c0.3,0.6,0.7,1.2,0.9,1.9
		c0.2,0.6,0.3,1.3,0.1,1.8c-0.6,1.5-0.9,3.5-2.1,4.5c-2.7,2.3-1.1,5.1-1.6,7.5c1.5,0.9,2.8,1.8,4.1,2.6c0.3,0.2,0.7,0.4,1.1,0.4
		c2.9,0,4.9,1.8,6.9,3.6c0.1,0.1,0.3,0.1,0.6,0.2c7.1-4.9,14.4-5.2,21.9-0.5c0.3-0.1,0.6-0.2,0.8-0.4c3.8-3.1,7.7-2,11.6-0.1
		c1.5,0.7,3.1,1.2,4.6,2c1.3,0.8,2.6,1.8,3.6,2.9c1.1,1.1,1.1,1.3,2.5,0.5c1.2-0.8,2.4-1.7,3.6-2.3s2.5-0.9,4.2-1.4
		c-0.1-2.7,0.4-5.6-0.4-8.5c-0.6-2.2-1.1-4.3-1.5-6.5c-1.2-6.7,1.1-12.5,4.8-17.8c4.3-6,9.4-11.3,15.4-15.7c2.7-2,5.9-3.6,8.8-5.3
		c0.5-0.3,1.1-0.7,1.4-0.9c0.1-3.8,0.2-7.4,0.3-11c0.2,0,0.4,0,0.6,0c0.2,3.6,0.4,7.2,0.6,11.2c0.6,0.3,1.5,0.9,2.5,1.4
		c4.1,2,8,4.3,11.4,7.4c0.7,0.7,1.8,1.1,2.5,1.8c2,2,4.2,4,5.8,6.3c2.8,4.2,6.1,8.2,7.3,13.1c1.4,5.5,2,11.2-0.9,16.6
		c-0.8,1.5-0.6,3.2,0.8,5.8c1.9,0,3.8,0,5.7,0c0.5,0,1-0.1,1.4-0.1c1.7,0.1,3.5,0.2,5.2,0.4c1.5,0.2,3,0.4,4.4,0.6
		c1.1,0.1,2.2,0.1,3.3,0.2c0.7,0.1,1.5,0.1,2,0.5c1.9,1.5,3.9,1.1,5.9,0.5c1.3-0.4,2.6-0.8,3.8-1.3c1.7-0.8,3.1-0.6,4.4,0.6
		c1,0.9,2.1,0.9,3.2,1.1c2.5,0.4,5,0.4,7.2,1.9c1.6,1.1,3.6,1.8,5.6,0.4c0.4-0.3,1.3-0.2,1.7,0.1c1.8,1,4.5,1,6-0.3
		c0.7-0.6,1.3-1,2.1-0.5c1.3,0.8,2.6-0.2,3.9-0.3c0.5,0,1.2-0.6,1.5-0.4c1.3,0.8,2.2,0.1,3.2-0.6c0.8-0.7,1.7-1.3,2.7-0.1
		c1.9-0.7,2.7,0.6,3.5,2c0.6-0.1,1.1-0.3,1.6-0.3s1.1,0.2,1.6,0.3c2-1.8,2-1.8,6.9,1.4c3.2-1.9,6.7-0.9,10.2-0.9
		c1.3,1.1,2.3,0.8,3.5-0.3c0.2-0.2,1-0.2,1.3,0c2.3,1.4,4.4,0.4,6.5-0.4c0.7-0.3,1.4-0.7,2-0.5c1.7,0.5,3.1-0.2,4.7-1.1
		c0.1-3.3,0.5-6.8-0.6-10.2c-3.1-9.6-1.2-17.9,5.7-25.5c6.4-7.1,13.9-12.4,22.1-17.1c1.1-0.6,2.6-1,1.3-2.7c0.8-3,0.2-6.1,0.6-9.1
		c0-0.1,0.2-0.2,0.5-0.5c0.2,2,0.4,3.8,0.3,5.7c-0.1,1.8,0.2,3.5,0.4,5.8c0.1,0.1,0.7,0.5,1.3,0.8c4.5,2.5,8.9,5.4,13.1,8.5
		c4,3,7.6,6.3,11,10c3.4,3.7,5,8.3,5.3,13.3c0.2,2.9-0.1,5.7-0.3,8.6c-0.1,1.8-0.2,1.9,1.5,2.8c2.6,1.4,5.2,2.8,7.7,4.4
		c1.5,0.9,2.7,2.2,4.1,3.2c1.3,0.9,2.6,0.7,3.8-0.4c0.4-0.3,0.9-0.8,1.4-0.8c2.8-0.2,5.3-0.9,7.3-3c0.4-0.4,1.1-0.7,1.6-1.1
		c0.7,0.3,1.3,0.6,1.9,0.9c2.3-1.2,2.3-1.2,4.4,0.2c0.6-0.5,1.3-1.1,1.9-1.7c1.2-1.1,1.7-1.2,3-0.1c0.6,0.5,1.2,1,1.9,1.7
		c0.4-1,0.8-1.8,1.2-2.8c3.2,0.1,6.4-0.4,9.6,0.4c0.9,0.2,1.9,0.3,2.8,0.3c2.6,0,5.1,0,7.7,0c2.2,0,4.4,0.1,6.7,0.5
		c2.1,0.4,4.3,0.2,6.5,0.2c2.8,0,3.5,0.7,3.6,3.5c0,0.4,0,0.8,0,1.2c0.1,2.4,0.7,2.7,3,3.2c5.2,1,10.3,0.6,15.5,0.7
		c0.5,0,0.9,0.1,1.7,0.1c0.1,1.7,0.2,3.3,0.3,5c0.4,0.1,0.7,0.3,0.9,0.3c5.4,0.1,10.8,1.2,16.2,0.8c0.6,0,1.2,0.1,2.2,0.2
		c0,4.9,0,9.6,0,14.5c0.9,0,1.4,0,1.9,0c1.5,0.1,3,0.3,4.5,0.4c1,0.1,1.9,0.3,2.9,0.3c4.9,0,9.8,0,14.6,0c2.2,0,4.4,0.2,6.6,0.6
		c3,0.5,6.1,0.3,9.1,0.1c2-0.1,3.4-1.4,3.6-3.6c0.8,0,1.5-0.2,2.2-0.1c3.1,0.3,6.1-0.3,9-1c1.1-0.2,2-1.2,2.8-2
		c0.6-0.7,1-1.6,1.4-2.5c2-3.7,5.3-5.9,9.1-7.4c2.9-1.1,6-1.7,8.8-3.1c2.8-1.5,5.7-1.3,8.6-1.3c1.1,0,2.2,0.3,3.3,0.4
		c0.6,0.1,1.1,0.3,1.6,0.3c3.9-0.2,7.6,1.2,11.2,2.4c1.7,0.6,3.2,0.7,4.8-0.3c1.4-0.9,3-1.3,4.7-1.5c1.4-0.2,2.6-1.1,3.9-1.6
		c2.2-0.9,4.4-1.8,6.6-2.8c1.5-0.6,2.8-1.4,4.3-2c2-0.8,4.1-1.3,6.3-1.3c2.6,0,5.2-0.1,7.8,0.6c2.2,0.5,4.6,0.4,6.8,1
		c3.3,0.9,6.6,2,9.8,3.2c1.9,0.7,3.6,0.8,5.5,0c3.4-1.5,6.9-2.9,10.3-4.4c0.5-0.2,1.1-0.4,1.6-0.4c3.3,0.1,6.6,0,10,0.5
		c5.1,0.7,9.9,2.4,14.7,4.2c2,0.7,3.6,2.3,5.4,3.5c0,31.8,0,63.7,0,95.5c-475.7,0-951.4,0-1427,0
		C1820.5,536.7,1820.5,502.6,1820.5,468.5z M2448.4,310.3c-2,2.7-2.1,4.6-0.6,7.3c1.9-1.5,1.4-3.8,1.5-5.8
		C2449.4,311.3,2448.8,310.8,2448.4,310.3z M2605.2,318.3c1.3-1.2,1.3-1.2,1.5-2.2c0.4-2.4-0.1-2.8-2.7-2.3c0,0.8,0,1.7,0,2.5
		c0.7-0.1,1.2-0.2,2-0.3C2605.8,316.8,2605.6,317.4,2605.2,318.3z M2618.6,291.8c0-2,0-3.9,0-5.9c-1.3,0.5-1.3,0.5-1.4,2.2
		C2617.2,291.3,2617.2,291.3,2618.6,291.8z M2462.2,315.9c1.2-1,2.4-1.4,2.7-2.2c0.3-0.9-0.3-2-0.7-3.6
		C2462.6,312,2462.1,313.6,2462.2,315.9z M2608,285.8c-0.6,2.3-0.6,4.3,0.1,6.4c0.4-0.6,0.9-1,0.9-1.3
		C2608.8,289.2,2609.7,287.4,2608,285.8z M2451.1,285.1c-1,2.4-0.9,4.8,0.2,5.9C2451.7,289,2451.9,287.2,2451.1,285.1z
		 M2611.7,319.8c-0.3-3,0.5-5.5-0.3-8.2c-1.3,2.3,0.2,4.9-0.8,7.3C2610.6,319.1,2611.1,319.3,2611.7,319.8z M2613.8,286.4
		c-0.1,1.7-0.6,3.5,0.2,5.4C2615.3,289.8,2615.2,287.7,2613.8,286.4z M2621.8,314.4c-0.4-1.3-0.8-2.5-1.2-3.7
		c-1.4,1.4-1.6,2.6-0.9,3.7C2620.4,315.2,2621.1,314.8,2621.8,314.4z M2621.7,319.8c0.1-1.1,0.8-2.3-0.5-3.3c-0.5,0.9-1,1.7-1.4,2.6
		c-0.1,0.3,0.2,0.9,0.4,1.1c0.5,0.3,0.9,0,0.9-0.7c0-0.2,0.1-0.4,0.3-1.1C2621.6,319.3,2621.7,319.5,2621.7,319.8z M2456.6,290.6
		c1.2-2.2,1.1-3.9,0-5.3C2456.6,287.2,2456.6,288.9,2456.6,290.6z M2461.2,285.8c-1.2,2-1.2,3.9,0,5.3
		C2461.2,289.2,2461.2,287.5,2461.2,285.8z M2454.7,290.8c0.9-2,0.9-3.2,0-4.8C2454.7,287.6,2454.7,289,2454.7,290.8z M2611.6,291.1
		c0.2,0,0.4,0.1,0.6,0.1c0.1-1.2,0.3-2.5,0.4-3.7C2611.4,288.5,2611.5,289.8,2611.6,291.1z M2457.4,315.6c0.7-1.2,0.7-3.2,0-4.4
		C2457.4,312.9,2457.4,314.3,2457.4,315.6z M2453.7,313.5c0,1.1,0,1.9,0,2.6C2454.1,315.3,2454.7,314.6,2453.7,313.5z M2614.6,319.6
		c0.8-0.6,0.8-1.1-0.1-1.6C2614.5,318.7,2614.6,319.2,2614.6,319.6z M2448.4,317.9c-0.2,0.8-0.4,1.2-0.5,1.8
		C2449.2,319.6,2449.2,319.1,2448.4,317.9z M2578.8,450c-0.1,0-0.1,0-0.2,0c0,0.5,0,1,0,1.6c0.1,0,0.1,0,0.2,0
		C2578.8,451,2578.8,450.5,2578.8,450z"/>
	<path id="XMLID_27_" class="st0" d="M2534.7,302.9c0,2.3,0,4.6,0,7.2c-3.5-1-6.9-1.4-10-3.1c0.8-0.9,1.5-1.8,2.3-2.4
		c0.6-0.5,1.5-0.8,2.3-0.9C2531.1,303.3,2532.8,303.1,2534.7,302.9z"/>
	<path id="XMLID_26_" class="st0" d="M2534.3,324.7c-0.2-0.7-0.4-1.3-0.5-2c0-0.3,0.4-0.7,0.7-1c0.2,0.4,0.6,0.7,0.6,1.1
		c0,0.7-0.3,1.3-0.4,2C2534.6,324.7,2534.4,324.7,2534.3,324.7z"/>
	<path id="XMLID_25_" class="st0" d="M2174.3,398.9c-0.3,1.5-1.3,0.9-2.2,0.8C2172.3,398.8,2172.3,398.8,2174.3,398.9z"/>
	<path id="XMLID_24_" class="st0" d="M2358.5,401.5c-0.9,1.3-1.5,0.7-2.1,0C2357,401.5,2357.6,401.5,2358.5,401.5z"/>
	<path id="XMLID_23_" class="st0" d="M2717.5,401.6c0.7,0.2,1.3,0.3,1.9,0.4C2718.2,402.7,2718.2,402.7,2717.5,401.6z"/>
	<path id="XMLID_22_" class="st0" d="M2894.2,404.2c-0.4-0.1-0.8-0.3-1.2-0.4c0-0.1,0.1-0.2,0.1-0.3c0.4,0.1,0.8,0.2,1.3,0.3
		C2894.3,403.9,2894.2,404.1,2894.2,404.2z"/>
	<path id="XMLID_21_" class="st0" d="M2448.4,310.3c0.4,0.6,1,1,1,1.5c-0.1,2,0.4,4.2-1.5,5.8C2446.3,314.9,2446.4,313,2448.4,310.3
		z"/>
	<path id="XMLID_19_" class="st0" d="M2605.2,318.3c0.3-0.9,0.6-1.5,0.9-2.4c-0.8,0.1-1.4,0.2-2,0.3c0-0.9,0-1.7,0-2.5
		c2.6-0.5,3.1-0.1,2.7,2.3C2606.5,317.2,2606.5,317.2,2605.2,318.3z"/>
	<path id="XMLID_18_" class="st0" d="M2618.6,291.8c-1.4-0.5-1.4-0.5-1.4-3.7c0-1.7,0-1.7,1.4-2.2
		C2618.6,287.9,2618.6,289.8,2618.6,291.8z"/>
	<path id="XMLID_17_" class="st0" d="M2462.2,315.9c0-2.3,0.4-3.9,2-5.8c0.3,1.5,0.9,2.7,0.7,3.6
		C2464.6,314.5,2463.4,315,2462.2,315.9z"/>
	<path id="XMLID_16_" class="st0" d="M2608,285.8c1.7,1.6,0.8,3.5,1,5.1c0,0.4-0.5,0.7-0.9,1.3
		C2607.4,290.1,2607.4,288.1,2608,285.8z"/>
	<path id="XMLID_15_" class="st0" d="M2451.1,285.1c0.8,2.1,0.6,4,0.2,5.9C2450.1,289.9,2450.1,287.5,2451.1,285.1z"/>
	<path id="XMLID_14_" class="st0" d="M2611.7,319.8c-0.6-0.5-1.1-0.8-1-0.9c1-2.4-0.6-5,0.8-7.3
		C2612.2,314.3,2611.4,316.9,2611.7,319.8z"/>
	<path id="XMLID_13_" class="st0" d="M2613.8,286.4c1.5,1.3,1.6,3.4,0.2,5.4C2613.2,289.8,2613.7,288.1,2613.8,286.4z"/>
	<path id="XMLID_12_" class="st0" d="M2621.8,314.4c-0.8,0.4-1.5,0.8-2.1-0.1c-0.8-1.1-0.5-2.3,0.9-3.7
		C2621,311.9,2621.4,313,2621.8,314.4z"/>
	<path id="XMLID_11_" class="st0" d="M2621.7,319.8c0-0.3-0.1-0.6-0.2-1.5c-0.2,0.7-0.3,0.9-0.3,1.1c0,0.7-0.4,0.9-0.9,0.7
		c-0.3-0.1-0.6-0.8-0.4-1.1c0.3-0.9,0.9-1.6,1.4-2.6C2622.5,317.6,2621.8,318.8,2621.7,319.8z"/>
	<path id="XMLID_10_" class="st0" d="M2456.6,290.6c0-1.7,0-3.4,0-5.3C2457.7,286.7,2457.8,288.3,2456.6,290.6z"/>
	<path id="XMLID_9_" class="st0" d="M2461.2,285.8c0,1.7,0,3.4,0,5.3C2460,289.8,2460,287.8,2461.2,285.8z"/>
	<path id="XMLID_8_" class="st0" d="M2454.7,290.8c0-1.8,0-3.1,0-4.8C2455.6,287.6,2455.6,288.7,2454.7,290.8z"/>
	<path id="XMLID_7_" class="st0" d="M2611.6,291.1c-0.1-1.3-0.2-2.5,1-3.6c-0.1,1.2-0.3,2.5-0.4,3.7
		C2612,291.1,2611.8,291.1,2611.6,291.1z"/>
	<path id="XMLID_6_" class="st0" d="M2457.4,315.6c0-1.4,0-2.7,0-4.4C2458.1,312.4,2458.1,314.4,2457.4,315.6z"/>
	<path id="XMLID_5_" class="st0" d="M2453.7,313.5c0.9,1.2,0.4,1.9,0,2.6C2453.7,315.3,2453.7,314.6,2453.7,313.5z"/>
	<path id="XMLID_4_" class="st0" d="M2614.6,319.6c0-0.4-0.1-0.9-0.1-1.6C2615.5,318.5,2615.5,319,2614.6,319.6z"/>
	<path id="XMLID_3_" class="st0" d="M2448.4,317.9c0.8,1.2,0.8,1.7-0.5,1.8C2448.1,319.1,2448.2,318.7,2448.4,317.9z"/>
	<path id="XMLID_2_" class="st0" d="M2578.8,450c0,0.5,0,1,0,1.5c-0.1,0-0.1,0-0.2,0c0-0.5,0-1,0-1.6
		C2578.7,450,2578.7,450,2578.8,450z"/>
</g>
<g id="XMLID_29_">
	<path id="XMLID_55_" class="st0" d="M-1003.5,468.5c2.7,0.2,5.4,0.4,8.1,0.5c0.2,0.6,0.4,1.2,0.5,1.8c0.2,0.1,0.5,0.3,0.7,0.3
		c1.6,0,3.2,0.1,4.8,0.1c2.3,0,4.6-0.2,6.9,0.6c0.7,0.2,1.4,0.1,2.1,0.1c1.5,0.2,3,0.4,4.5,0.6c0.3,0,0.6,0.2,0.9,0.2
		c4.3,0.3,8.6,0.5,12.9,0.8c1.3,0.1,2.5,0.3,3.8,0.5c0.2,0,0.5,0.1,0.7,0.2c3.2,0.3,6.3,0.8,9.5,0.9c4.2,0.1,8.2,0.7,12.3,1.4
		c0.2,0,0.3,0.1,0.5,0.1c3.4-0.1,6.7,0.3,10,0.8c3.5,0.6,7.1,1,10.6,1.4c1.6,0.2,3.2,0.2,4.8,0.2c1.9,0,3.6,0.3,5.4,0.9
		c1.3,0.4,2.6,0.5,4,0.7c1.5,0.2,2.6-0.4,3.9-1.4c2.3-1.8,5-2.4,7.8-1c0.7,0.3,1.5,0.4,2.3,0.3c2.2-0.3,4.4-0.4,6.6,0.3
		c0.6,0.2,1.3,0.3,1.9,0.3c2.3,0,4.6,0.3,6.9,0.6c2.9,0.4,5.8,0.5,8.8,0.9c4.5,0.7,9,1,13.5,1.5c0.7,0.1,1.4,0.1,2.1,0.1
		c3.1,0,6.2,0.1,9.4,0c2-0.1,3.9-0.4,5.9-0.6c0.8-0.1,1.6-0.1,2.4-0.1c8,0,16,0,24,0c0.9,0,1.7,0,2.9,0c0.6-3.6,0-7.1,0.4-10.7
		c0.6-0.1,1.2-0.2,1.8-0.2c3.5-0.2,7,0.4,10.5-0.7c1.2-0.4,2.7-0.1,4.1-0.1c0.9,0,1.7,0,2.8,0c0.1-2.1,0.2-4,0.3-6
		c2.9-0.3,5.6-0.8,8.4-1c2.8-0.2,5.6,0,8.4,0c0.8,0,1.6-0.1,2.3-0.1c0.3-1.8,0.5-3.5,0.9-5.1c0.7-2.6,1.9-3.3,4.5-3.4
		c1.9,0,3.8,0.1,5.8,0c1.2,0,2.4-0.3,3.5-0.4c2.3-0.2,4.6-0.4,6.9-0.5c2.1-0.1,4.2,0.1,6.2,0.1c1.6,0,2.6-0.9,3.4-2.5
		c0.1,1.5,0.9,1.9,2.1,1.8c0.5,0,1,0.1,1.4,0c5.3-0.7,10.6,0.4,15.9,0c0.5,0,1.1,0.1,1.9,0.2c0,1.4,0,2.7,0,4c0,2.9,0.6,3.5,3.5,3.6
		c4.7,0,9.4,0,14.2,0c2.4,0,4.8,0.2,7.1,1.1c2.5,0.9,4.1-0.6,3.5-3.2c-0.5-2.4-1.1-4.8-1.5-7.2c-0.9-5.6,0.5-10.8,3.6-15.5
		c3.3-5,7.5-9.1,12.3-12.7c5.1-3.8,10.5-7,16.2-9.7c0.3-0.1,0.5-0.3,0.8-0.4c-0.5-3.8,0-7.5,0.2-11.3c0.9,0.8,1,1.8,0.9,5.4
		c-0.1,1.9,0.2,3.7,0.3,5.8c0.4,0.2,0.8,0.5,1.3,0.8c5.6,2.7,10.8,6,15.2,10.3c4.2,4.1,8.3,8.4,10.7,14c0.5,1.1,1.5,2,1.7,3.1
		c0.7,2.8,1.4,5.7,1.5,8.6c0.1,2.6-0.3,5.3-1,7.8c-0.6,2.3-0.8,4.5-0.9,6.8c-0.1,1.9,0.1,2.1,2,2.2c5.3,0.3,10.6,0.7,15.9,0.9
		c1.5,0.1,3-0.2,4.5-0.2c1.7,0,3.5,0.1,5.2,0.1c1.4,0.1,2.9,0.1,4.3,0.3c2.4,0.4,4.8,0.9,7.3,1.4c2.7,0.5,5.4,1.3,8.2,1.6
		c1.6,0.2,3.3-0.2,4.9-0.3c0.9,0,1.8,0,2.8,0c0.7,0,1.4,0.1,2.1,0.1c0.4,0,1,0,1.1,0.1c0.7,1.4,1.9,0.9,2.9,0.9
		c1.8,0.1,3.7,0.1,5.5,0c1.5-0.1,3-0.5,4.4-0.7c1.5-0.1,3-0.3,4.5-0.1c4.6,0.7,15.8,1.2,19.8,0.6c0.8-0.5,0.3-2,1.8-1.9
		c1.2,0.1,1.2,1.1,1.5,1.8c2.8,0.6,4.2,0.5,6.1-0.4c1,0.7,1.7,0.9,4.4,1c2.2-1.9,0.8-4.6,1.5-7c4.1-0.5,8.3,0.3,12.5-0.5
		c0.4-2,0.4-3.9,0-5.8c-1-4.7-1.1-9.3,0.3-14c1.4-4.4,4.2-7.8,7.2-11.2c6.4-7,13.7-12.7,22-17.2c0.4-0.2,0.8-0.5,0.9-0.6
		c0.1-2.1,0.4-3.9,0.3-5.8c-0.1-1.9-0.1-3.8,0.6-6.2c0.3,0.8,0.6,1.1,0.6,1.4c0,2.4-0.2,4.8-0.1,7.2c0,1,0.6,1.9-0.3,2.9
		c1.4,0.9,2.6,1.6,3.7,2.5c3.6,2.6,7.2,5.2,10.9,7.9c0.5,0.4,0.9,0.9,1.4,1.3c1.5,1.6,2.8,3.3,4.4,4.7c3.3,3,6.1,6.4,7.9,10.4
		c2.8,6.6,3.4,13.4,1.4,20.3c-0.6,2.1-0.6,4.2-0.4,6.7c2.4-0.2,4.6-0.4,6.9-0.7c1.5-0.2,3.1-0.4,4.6-1c0.7-0.3,1.6-0.1,2.3-0.2
		c0.9-0.1,1.8-0.2,2.7-0.4c0.2,0,0.5-0.2,0.7-0.1c1.8,1.2,3.6,0.1,5.5,0.2c0.2-0.9,0.4-1.7,0.6-2.8c0.2,0.5,0.4,0.8,0.5,1.1
		c0.1,0.4,0.1,0.8,0.1,1.2c4.7,0.9,9-1.3,13.4-1.3c1.1-2.3,1.1-2.3,3.5-2.2c0.7,1.8,1.8,2.2,3.8,1.9c2.5-0.4,5,0.1,7.6,0.3
		c1.6,0.1,3.2,0.5,4.9-0.5c0-2.5,0-5,0-7.6c0-0.3-0.1-0.7-0.3-0.9c-2.1-1.4-1.9-4.1-3.1-6c-0.3-0.4-0.2-1.2,0-1.6
		c1.1-1.7,1.3-4.1,3.7-4.7c0.1-1.8,0.3-3.5,0.2-5.1c-0.1-1.1-0.5-2.2-1-3.1c-1.1-2.1-1.4-4.2-0.3-6.2c1.8-3.1,1.4-6.1,0.3-9.2
		c-0.2-0.7-0.5-1.3-0.8-2.2c1.7-0.2,2.1-1.3,2.1-2.8c0.1-8.3,0.2-16.6,0.3-24.9c0.3-12.7,0.7-25.4,1-38.1c0.2-6.5,0.3-12.9,0.5-19.4
		c0-0.9-0.1-1.7-0.6-2.5c-1-1.6-2-3.2-2.8-4.8c-0.6-1.2-0.7-2.6-1-4c1-0.3,1.5-0.9,1.5-2.1c0-3.4,0.1-6.9,0.2-10.3
		c0-1-0.1-1.8-1-2.5c-0.7-0.6-0.9-1.8-1.4-2.8c1.2-0.3,2.2-0.6,3.3-0.9c0-1.2,0.1-2.4,0-3.6c-0.1-2,0.4-3.6,2-4.9
		c1.3-1,1.6-2.3,1.5-3.8c-0.1-3.7-0.1-7.5-0.2-11.3c0-0.7-0.1-1.4-0.4-2.1c-1.1-3-0.5-5.7,1.2-8.2c1.3-2.1,3-4,5.2-5.2
		c0.5-0.3,1.1-0.7,1.3-0.9c0.2-2.4,0.6-4.5,0.4-6.6c-0.2-3,0.3-5.9,0.5-8.9c0.2-1.9-0.2-3.9-0.3-6.3c0.4-0.5,1.1-0.5,2.1,0.3
		c-1.3,2.6-0.9,5.5-0.7,8.3c0.1,1.7-0.6,3.5,0.4,5.1c-0.9,2.6,0,5.3-0.7,8c2.5,1.5,4.5,3.4,6.1,5.8c1.9,2.9,2.1,5.9,1.1,9.1
		c-0.4,1.2-0.4,2.6-0.5,4c-0.3,3.2-0.1,6.4-0.2,9.7c0,1.4,0.2,2.5,1.3,3.4c1.4,1.2,2,2.8,1.6,4.7c-0.2,0.8-0.1,1.6,0,2.4
		c0.1,1,0.4,1.8,1.6,1.7c1.3,0,1.9,0.7,2.1,1.8c0.1,1.1-0.6,1.8-1.7,1.9c-0.1,0-0.3,0.2-0.7,0.5c0,2.3,0,4.9,0,7.4
		c0,1.4-0.1,2.9,0,4.3c0,0.5,0,1.2,0.3,1.3c1.4,0.7,1.5,1.6,0.6,2.8c0.8,1.9-0.8,3.2-1.6,4.3c-2.8,3.7-2.9,7.8-2.5,12.1
		c0.2,2.6-0.1,5.2,0,7.9c0.1,6.4,0.1,12.8,0.3,19.2c0.1,4.1,0.4,8.1,0.5,12.2c0,0.6,0,1.1,0,1.7c0,5,0,10.1,0.1,15.1
		c0.1,6.3,0.3,12.6,0.4,18.9c0,0.8,0,1.6,0,2.4c0.7,0.4,1.2,0.7,1.8,0.9c0,0.3,0,0.6-0.1,0.8c-0.3,1-0.7,2-1.1,2.9
		c-0.8,2.4-0.9,4.7,0.4,6.9c1.4,2.5,1.4,5-0.3,7.4c-0.5,0.7-0.6,1.6-0.7,2.5c-0.1,1,0.1,2.1,0,3.1c0,1.2,0.3,2,1.2,2.9
		c1.1,1.2,2.1,2.7,2.4,4.2c0.3,1.3-0.3,2.9-1,4.1c-0.6,1.1-0.5,2.7-2.1,3.3c-0.3,0.1-0.5,1-0.5,1.5c-0.1,1.8,0,3.7,0,5.6
		c1.6,0.5,3,1.6,4.9,0.8c0.9-0.4,2.1,0.1,3.6,0.3c-0.6-1.2-1-2.1-1.6-3.4c2.1,1,2.6,3.8,5.4,2.7c0.2-2.4,0.4-5,0.7-7.5
		c0.2,0,0.4,0,0.6,0c0,2.5,0,5,0,7.3c1.6,0.1,2.9,0.4,4.2,0.3c1.4-0.1,2.7-0.5,4.3-0.9c0.1,0.1,0.3,0.5,0.7,1
		c0.3-0.2,0.6-0.3,0.6-0.5c0.1-1,0.2-2.1,0.2-3.1c0-1.7-0.1-3.3-0.3-5c-0.1-1.6-0.3-3.2-0.4-4.7c-0.1-1-0.3-2.1,0-3.1
		c0.5-1.8,0.1-3.3-0.9-4.7c-0.8-1.1-1.3-2.3-1.5-3.7c-0.7-3.7-1.8-7.3-2.3-11c-0.9-7.4-0.4-14.6,2.1-21.7c1.6-4.5,3.7-8.6,6.3-12.6
		c7.7-12.3,17.4-22.9,28.1-32.6c3.8-3.4,7.9-6.3,12.1-9c1.7-1.1,2-2.4,1-4c-0.6-0.9-0.7-1.5-0.2-2.4c0.9-1.7,0.9-1.9-0.2-3.7
		c0.3-0.7,1-1.4,0.9-2.1c-0.3-1.7-0.5-3.4,0.4-5c-1.4-1.3,0.4-2.7,0-3.8c-0.6-1.5,0.1-2.8,0.4-4.1c0.4,1.3,1.1,2.4,0.5,3.9
		c-0.2,0.5,0.2,1.2,0.3,1.8c0.1,0.4,0.3,0.9,0.2,1.3c-0.4,1.9-0.4,1.9,0.6,3.6c-0.7,1.1-1.5,2.4-0.2,3.7c0.2,0.2,0.2,1-0.1,1.3
		c-0.8,1.1-0.6,2,0.1,3c0.6,0.8,0.7,1.6-0.1,2.6c-1,1.4-0.6,2.9,0.8,4c7.8,5.7,15.6,11.5,22.3,18.5c4.4,4.6,8.9,9.2,12.7,14.3
		c3.6,4.8,6.7,10,9.4,15.3c6.3,12.5,6.2,25.5,2,38.7c-0.3,1.1-0.6,2.2-1.2,3.1c-2.3,4.1-2.3,8.5-1.6,13c0.3,2-0.1,4-0.1,6
		c0,0.7-0.1,1.5,0,2.2c0.2,1.2,1.3,1.5,2.1,0.6c0.6-0.7,1.3-1.4,1.1-2.5c-0.1-0.9,0-1.7,0-2.6c0-0.1,0.1-0.1,0.2-0.3
		c0.7,0.7,0.6,1.6,0.4,2.4c-0.4,1.3,0.3,1.8,1.5,1.9c0.1-0.4,0.1-0.9,0.2-1.7c0.8,1.1,1.4,2,2.1,3.1c1.4-2.4-0.2-5.1,1-7.7
		c1.4,2.9,1.7,5.5,2,8.2c0.2-1.3,0.5-2.7,0.7-4c0.1,0,0.2,0,0.2,0c0,1.1,0.1,2.2,0.2,3.7c0.9-1,1.5-1.8,2.1-2.6
		c0.1,0.1,0.2,0.1,0.3,0.2c-0.6,1.3-1.1,2.5-1.8,3.9c2.3,1.1,3.2-1.5,5.1-1.5c0.2,1.3-1.6,1.2-1.8,2.4c2.2,0.5,4.2-0.3,6.5-1.2
		c0-2.6,0-5.3,0-7.9c0-0.3-0.2-0.7-0.4-0.8c-1.8-1.3-1.9-3.5-2.9-5.3c-0.5-0.8-0.7-2,0.4-3c1-0.9,1.6-2.3,2.5-3.5
		c0.1-0.2,0.4-0.4,0.4-0.6c-0.1-2.7,1-5.6-0.8-8.2c-1.3-2-1.6-4.3-0.5-6.4c1.6-3,1.4-5.8,0.3-8.8c-0.3-0.7-0.5-1.5-0.8-2.4
		c0.6-0.3,1.2-0.6,2-1c0.1-6,0.3-12.1,0.4-18.2c0.2-14,0.3-28,0.5-42c0.1-6.9,0.5-13.9,0.8-20.8c0-0.9-0.1-1.8,0-2.6
		c0.3-2.1-1.1-3.5-1.8-5.2c-0.4-1-1.4-1.7-1.8-2.6c-0.3-0.8,0-2-0.4-2.7c-0.7-1.2-0.2-1.7,0.7-2.3c0.3-0.2,0.4-1,0.4-1.5
		c-0.1-1.6-0.3-3.1-0.5-4.7c0-0.5-0.1-0.9,0-1.4c0.1-1.5,0.5-3,0.4-4.5c0-0.7-0.5-1.6-1-2c-0.8-0.6-1.2-1.2-1-2.2
		c0.2-1.1,1.1-1.3,2-1.3c0.2,0,0.3-0.1,0.7-0.2c0-1.2,0.1-2.6,0-3.9c-0.2-1.8,0.4-3.4,1.8-4.5c1.5-1.2,1.9-2.7,1.8-4.6
		c-0.2-3.7-0.2-7.3-0.4-11c0-0.8-0.3-1.5-0.6-2.3c-0.9-2.7-0.7-5.3,0.9-7.8c1.8-2.7,4.1-4.9,6.7-6.6c0.1-2.3,0.6-4.5,0.2-6.6
		c-0.2-1.5,0.1-2.6,0.3-3.9c0.2-1.3,0-2.7,0-4.1c0-2.4,0-4.8,0-7.3c0.4,0,1.1,0,1.9,0c-1.1,3.1-0.6,6-0.6,8.9c0,2,0.3,4.1-0.1,6.2
		c-0.4,2.1-0.1,4.4-0.1,6.4c2,2.1,4,4,5.8,6c2.4,2.8,2.7,5.9,1.7,9.4c-0.6,2.1-0.6,4.4-0.8,6.5c-0.1,2.4,0,4.8-0.1,7.2
		c0,1.3,0.3,2.5,1.5,3.3c1.5,1.1,2.2,2.6,2,4.6c-0.2,1.3,0,2.7,0,4c1.1,0.3,1.9,0.5,3,0.7c-0.3,0.9-0.4,2.1-0.9,2.5
		c-1.5,0.9-1.3,2.3-1.2,3.6c0,1.6,0.3,3.1,0.3,4.7c0,1.7-0.1,3.3-0.3,5c-0.1,1.1,0.5,1.6,1.4,1.7c0.1,2.7-1.1,4.8-2.5,6.9
		c-1.5,2.2-2.2,4.5-2.2,7c0.1,4.2,0.2,8.4,0.2,12.6c0.1,5.4,0.1,10.7,0.2,16.1c0.1,8,0.3,16.1,0.5,24.1c0.1,5,0.1,10.1,0.2,15.1
		c0.1,3.9,0.2,7.8,0.3,11.7c0.1,2.5,0.1,2.5,2.4,3.5c-0.5,1.8-1,3.7-1.7,5.5c-0.5,1.5-0.3,2.8,0.2,4.2c0.4,0.9,0.7,1.8,1.1,2.7
		c0.7,2.1,0.6,4.1-0.9,5.9c-1.8,2.2-1,4.7-0.9,7.2c0,0.4,0.8,1,1.4,1.1c1.2,0.3,1.7,1.1,2.1,2c0.3,0.6,0.7,1.2,0.9,1.9
		c0.2,0.6,0.3,1.3,0.1,1.8c-0.6,1.5-0.9,3.5-2.1,4.5c-2.7,2.3-1.1,5.1-1.6,7.5c1.5,0.9,2.8,1.8,4.1,2.6c0.3,0.2,0.7,0.4,1.1,0.4
		c2.9,0,4.9,1.8,6.9,3.6c0.1,0.1,0.3,0.1,0.6,0.2c7.1-4.9,14.4-5.2,21.9-0.5c0.3-0.1,0.6-0.2,0.8-0.4c3.8-3.1,7.7-2,11.6-0.1
		c1.5,0.7,3.1,1.2,4.6,2c1.3,0.8,2.6,1.8,3.6,2.9c1.1,1.1,1.1,1.3,2.5,0.5c1.2-0.8,2.4-1.7,3.6-2.3c1.2-0.6,2.5-0.9,4.2-1.4
		c-0.1-2.7,0.4-5.6-0.4-8.5c-0.6-2.2-1.1-4.3-1.5-6.5c-1.2-6.7,1.1-12.5,4.8-17.8c4.3-6,9.4-11.3,15.4-15.7c2.7-2,5.9-3.6,8.8-5.3
		c0.5-0.3,1.1-0.7,1.4-0.9c0.1-3.8,0.2-7.4,0.3-11c0.2,0,0.4,0,0.6,0c0.2,3.6,0.4,7.2,0.6,11.2c0.6,0.3,1.5,0.9,2.5,1.4
		c4.1,2,8,4.3,11.4,7.4c0.7,0.7,1.8,1.1,2.5,1.8c2,2,4.2,4,5.8,6.3c2.8,4.2,6.1,8.2,7.3,13.1c1.4,5.5,2,11.2-0.9,16.6
		c-0.8,1.5-0.6,3.2,0.8,5.8c1.9,0,3.8,0,5.7,0c0.5,0,1-0.1,1.4-0.1c1.7,0.1,3.5,0.2,5.2,0.4c1.5,0.2,3,0.4,4.4,0.6
		c1.1,0.1,2.2,0.1,3.3,0.2c0.7,0.1,1.5,0.1,2,0.5c1.9,1.5,3.9,1.1,5.9,0.5c1.3-0.4,2.6-0.8,3.8-1.3c1.7-0.8,3.1-0.6,4.4,0.6
		c1,0.9,2.1,0.9,3.2,1.1c2.5,0.4,5,0.4,7.2,1.9c1.6,1.1,3.6,1.8,5.6,0.4c0.4-0.3,1.3-0.2,1.7,0.1c1.8,1,4.5,1,6-0.3
		c0.7-0.6,1.3-1,2.1-0.5c1.3,0.8,2.6-0.2,3.9-0.3c0.5,0,1.2-0.6,1.5-0.4c1.3,0.8,2.2,0.1,3.2-0.6c0.8-0.7,1.7-1.3,2.7-0.1
		c1.9-0.7,2.7,0.6,3.5,2c0.6-0.1,1.1-0.3,1.6-0.3s1.1,0.2,1.6,0.3c2-1.8,2-1.8,6.9,1.4c3.2-1.9,6.7-0.9,10.2-0.9
		c1.3,1.1,2.3,0.8,3.5-0.3c0.2-0.2,1-0.2,1.3,0c2.3,1.4,4.4,0.4,6.5-0.4c0.7-0.3,1.4-0.7,2-0.5c1.7,0.5,3.1-0.2,4.7-1.1
		c0.1-3.3,0.5-6.8-0.6-10.2c-3.1-9.6-1.2-17.9,5.7-25.5c6.4-7.1,13.9-12.4,22.1-17.1c1.1-0.6,2.6-1,1.3-2.7c0.8-3,0.2-6.1,0.6-9.1
		c0-0.1,0.2-0.2,0.5-0.5c0.2,2,0.4,3.8,0.3,5.7c-0.1,1.8,0.2,3.5,0.4,5.8c0.1,0.1,0.7,0.5,1.3,0.8c4.5,2.5,8.9,5.4,13.1,8.5
		c4,3,7.6,6.3,11,10c3.4,3.7,5,8.3,5.3,13.3c0.2,2.9-0.1,5.7-0.3,8.6c-0.1,1.8-0.2,1.9,1.5,2.8c2.6,1.4,5.2,2.8,7.7,4.4
		c1.5,0.9,2.7,2.2,4.1,3.2c1.3,0.9,2.6,0.7,3.8-0.4c0.4-0.3,0.9-0.8,1.4-0.8c2.8-0.2,5.3-0.9,7.3-3c0.4-0.4,1.1-0.7,1.6-1.1
		c0.7,0.3,1.3,0.6,1.9,0.9c2.3-1.2,2.3-1.2,4.4,0.2c0.6-0.5,1.3-1.1,1.9-1.7c1.2-1.1,1.7-1.2,3-0.1c0.6,0.5,1.2,1,1.9,1.7
		c0.4-1,0.8-1.8,1.2-2.8c3.2,0.1,6.4-0.4,9.6,0.4c0.9,0.2,1.9,0.3,2.8,0.3c2.6,0,5.1,0,7.7,0c2.2,0,4.4,0.1,6.7,0.5
		c2.1,0.4,4.3,0.2,6.5,0.2c2.8,0,3.5,0.7,3.6,3.5c0,0.4,0,0.8,0,1.2c0.1,2.4,0.7,2.7,3,3.2c5.2,1,10.3,0.6,15.5,0.7
		c0.5,0,0.9,0.1,1.7,0.1c0.1,1.7,0.2,3.3,0.3,5c0.4,0.1,0.7,0.3,0.9,0.3c5.4,0.1,10.8,1.2,16.2,0.8c0.6,0,1.2,0.1,2.2,0.2
		c0,4.9,0,9.6,0,14.5c0.9,0,1.4,0,1.9,0c1.5,0.1,3,0.3,4.5,0.4c1,0.1,1.9,0.3,2.9,0.3c4.9,0,9.8,0,14.6,0c2.2,0,4.4,0.2,6.6,0.6
		c3,0.5,6.1,0.3,9.1,0.1c2-0.1,3.4-1.4,3.6-3.6c0.8,0,1.5-0.2,2.2-0.1c3.1,0.3,6.1-0.3,9-1c1.1-0.2,2-1.2,2.8-2
		c0.6-0.7,1-1.6,1.4-2.5c2-3.7,5.3-5.9,9.1-7.4c2.9-1.1,6-1.7,8.8-3.1c2.8-1.5,5.7-1.3,8.6-1.3c1.1,0,2.2,0.3,3.3,0.4
		c0.6,0.1,1.1,0.3,1.6,0.3c3.9-0.2,7.6,1.2,11.2,2.4c1.7,0.6,3.2,0.7,4.8-0.3c1.4-0.9,3-1.3,4.7-1.5c1.4-0.2,2.6-1.1,3.9-1.6
		c2.2-0.9,4.4-1.8,6.6-2.8c1.5-0.6,2.8-1.4,4.3-2c2-0.8,4.1-1.3,6.3-1.3c2.6,0,5.2-0.1,7.8,0.6c2.2,0.5,4.6,0.4,6.8,1
		c3.3,0.9,6.6,2,9.8,3.2c1.9,0.7,3.6,0.8,5.5,0c3.4-1.5,6.9-2.9,10.3-4.4c0.5-0.2,1.1-0.4,1.6-0.4c3.3,0.1,6.6,0,10,0.5
		c5.1,0.7,9.9,2.4,14.7,4.2c2,0.7,3.6,2.3,5.4,3.5c0,31.8,0,63.7,0,95.5c-475.7,0-951.4,0-1427,0
		C-1003.5,536.7-1003.5,502.6-1003.5,468.5z M-375.6,310.3c-2,2.7-2.1,4.6-0.6,7.3c1.9-1.5,1.4-3.8,1.5-5.8
		C-374.6,311.3-375.2,310.8-375.6,310.3z M-218.8,318.3c1.3-1.2,1.3-1.2,1.5-2.2c0.4-2.4-0.1-2.8-2.7-2.3c0,0.8,0,1.7,0,2.5
		c0.7-0.1,1.2-0.2,2-0.3C-218.2,316.8-218.4,317.4-218.8,318.3z M-205.4,291.8c0-2,0-3.9,0-5.9c-1.3,0.5-1.3,0.5-1.4,2.2
		C-206.8,291.3-206.8,291.3-205.4,291.8z M-361.8,315.9c1.2-1,2.4-1.4,2.7-2.2c0.3-0.9-0.3-2-0.7-3.6
		C-361.4,312-361.9,313.6-361.8,315.9z M-216,285.8c-0.6,2.3-0.6,4.3,0.1,6.4c0.4-0.6,0.9-1,0.9-1.3
		C-215.2,289.2-214.3,287.4-216,285.8z M-372.9,285.1c-1,2.4-0.9,4.8,0.2,5.9C-372.3,289-372.1,287.2-372.9,285.1z M-212.3,319.8
		c-0.3-3,0.5-5.5-0.3-8.2c-1.3,2.3,0.2,4.9-0.8,7.3C-213.4,319.1-212.9,319.3-212.3,319.8z M-210.2,286.4c-0.1,1.7-0.6,3.5,0.2,5.4
		C-208.7,289.8-208.8,287.7-210.2,286.4z M-202.2,314.4c-0.4-1.3-0.8-2.5-1.2-3.7c-1.4,1.4-1.6,2.6-0.9,3.7
		C-203.6,315.2-202.9,314.8-202.2,314.4z M-202.3,319.8c0.1-1.1,0.8-2.3-0.5-3.3c-0.5,0.9-1,1.7-1.4,2.6c-0.1,0.3,0.2,0.9,0.4,1.1
		c0.5,0.3,0.9,0,0.9-0.7c0-0.2,0.1-0.4,0.3-1.1C-202.4,319.3-202.3,319.5-202.3,319.8z M-367.4,290.6c1.2-2.2,1.1-3.9,0-5.3
		C-367.4,287.2-367.4,288.9-367.4,290.6z M-362.8,285.8c-1.2,2-1.2,3.9,0,5.3C-362.8,289.2-362.8,287.5-362.8,285.8z M-369.3,290.8
		c0.9-2,0.9-3.2,0-4.8C-369.3,287.6-369.3,289-369.3,290.8z M-212.4,291.1c0.2,0,0.4,0.1,0.6,0.1c0.1-1.2,0.3-2.5,0.4-3.7
		C-212.6,288.5-212.5,289.8-212.4,291.1z M-366.6,315.6c0.7-1.2,0.7-3.2,0-4.4C-366.6,312.9-366.6,314.3-366.6,315.6z M-370.3,313.5
		c0,1.1,0,1.9,0,2.6C-369.9,315.3-369.3,314.6-370.3,313.5z M-209.4,319.6c0.8-0.6,0.8-1.1-0.1-1.6
		C-209.5,318.7-209.4,319.2-209.4,319.6z M-375.6,317.9c-0.2,0.8-0.4,1.2-0.5,1.8C-374.8,319.6-374.8,319.1-375.6,317.9z
		 M-245.2,450c-0.1,0-0.1,0-0.2,0c0,0.5,0,1,0,1.6c0.1,0,0.1,0,0.2,0C-245.2,451-245.2,450.5-245.2,450z"/>
	<path id="XMLID_54_" class="st0" d="M-289.3,302.9c0,2.3,0,4.6,0,7.2c-3.5-1-6.9-1.4-10-3.1c0.8-0.9,1.5-1.8,2.3-2.4
		c0.6-0.5,1.5-0.8,2.3-0.9C-292.9,303.3-291.2,303.1-289.3,302.9z"/>
	<path id="XMLID_53_" class="st0" d="M-289.7,324.7c-0.2-0.7-0.4-1.3-0.5-2c0-0.3,0.4-0.7,0.7-1c0.2,0.4,0.6,0.7,0.6,1.1
		c0,0.7-0.3,1.3-0.4,2C-289.4,324.7-289.6,324.7-289.7,324.7z"/>
	<path id="XMLID_52_" class="st0" d="M-649.7,398.9c-0.3,1.5-1.3,0.9-2.2,0.8C-651.7,398.8-651.7,398.8-649.7,398.9z"/>
	<path id="XMLID_51_" class="st0" d="M-465.5,401.5c-0.9,1.3-1.5,0.7-2.1,0C-467,401.5-466.4,401.5-465.5,401.5z"/>
	<path id="XMLID_50_" class="st0" d="M-106.5,401.6c0.7,0.2,1.3,0.3,1.9,0.4C-105.8,402.7-105.8,402.7-106.5,401.6z"/>
	<path id="XMLID_49_" class="st0" d="M70.2,404.2c-0.4-0.1-0.8-0.3-1.2-0.4c0-0.1,0.1-0.2,0.1-0.3c0.4,0.1,0.8,0.2,1.3,0.3
		C70.3,403.9,70.2,404.1,70.2,404.2z"/>
	<path id="XMLID_48_" class="st0" d="M-375.6,310.3c0.4,0.6,1,1,1,1.5c-0.1,2,0.4,4.2-1.5,5.8C-377.7,314.9-377.6,313-375.6,310.3z"
		/>
	<path id="XMLID_47_" class="st0" d="M-218.8,318.3c0.3-0.9,0.6-1.5,0.9-2.4c-0.8,0.1-1.4,0.2-2,0.3c0-0.9,0-1.7,0-2.5
		c2.6-0.5,3.1-0.1,2.7,2.3C-217.5,317.2-217.5,317.2-218.8,318.3z"/>
	<path id="XMLID_46_" class="st0" d="M-205.4,291.8c-1.4-0.5-1.4-0.5-1.4-3.7c0-1.7,0-1.7,1.4-2.2
		C-205.4,287.9-205.4,289.8-205.4,291.8z"/>
	<path id="XMLID_45_" class="st0" d="M-361.8,315.9c0-2.3,0.4-3.9,2-5.8c0.3,1.5,0.9,2.7,0.7,3.6
		C-359.4,314.5-360.6,315-361.8,315.9z"/>
	<path id="XMLID_44_" class="st0" d="M-216,285.8c1.7,1.6,0.8,3.5,1,5.1c0,0.4-0.5,0.7-0.9,1.3C-216.6,290.1-216.6,288.1-216,285.8z
		"/>
	<path id="XMLID_43_" class="st0" d="M-372.9,285.1c0.8,2.1,0.6,4,0.2,5.9C-373.9,289.9-373.9,287.5-372.9,285.1z"/>
	<path id="XMLID_42_" class="st0" d="M-212.3,319.8c-0.6-0.5-1.1-0.8-1-0.9c1-2.4-0.6-5,0.8-7.3
		C-211.8,314.3-212.6,316.9-212.3,319.8z"/>
	<path id="XMLID_41_" class="st0" d="M-210.2,286.4c1.5,1.3,1.6,3.4,0.2,5.4C-210.8,289.8-210.3,288.1-210.2,286.4z"/>
	<path id="XMLID_40_" class="st0" d="M-202.2,314.4c-0.8,0.4-1.5,0.8-2.1-0.1c-0.8-1.1-0.5-2.3,0.9-3.7
		C-203,311.9-202.6,313-202.2,314.4z"/>
	<path id="XMLID_39_" class="st0" d="M-202.3,319.8c0-0.3-0.1-0.6-0.2-1.5c-0.2,0.7-0.3,0.9-0.3,1.1c0,0.7-0.4,0.9-0.9,0.7
		c-0.3-0.1-0.6-0.8-0.4-1.1c0.3-0.9,0.9-1.6,1.4-2.6C-201.5,317.6-202.2,318.8-202.3,319.8z"/>
	<path id="XMLID_38_" class="st0" d="M-367.4,290.6c0-1.7,0-3.4,0-5.3C-366.3,286.7-366.2,288.3-367.4,290.6z"/>
	<path id="XMLID_37_" class="st0" d="M-362.8,285.8c0,1.7,0,3.4,0,5.3C-364,289.8-364,287.8-362.8,285.8z"/>
	<path id="XMLID_36_" class="st0" d="M-369.3,290.8c0-1.8,0-3.1,0-4.8C-368.4,287.6-368.4,288.7-369.3,290.8z"/>
	<path id="XMLID_35_" class="st0" d="M-212.4,291.1c-0.1-1.3-0.2-2.5,1-3.6c-0.1,1.2-0.3,2.5-0.4,3.7
		C-212,291.1-212.2,291.1-212.4,291.1z"/>
	<path id="XMLID_34_" class="st0" d="M-366.6,315.6c0-1.4,0-2.7,0-4.4C-365.9,312.4-365.9,314.4-366.6,315.6z"/>
	<path id="XMLID_33_" class="st0" d="M-370.3,313.5c0.9,1.2,0.4,1.9,0,2.6C-370.3,315.3-370.3,314.6-370.3,313.5z"/>
	<path id="XMLID_32_" class="st0" d="M-209.4,319.6c0-0.4-0.1-0.9-0.1-1.6C-208.5,318.5-208.5,319-209.4,319.6z"/>
	<path id="XMLID_31_" class="st0" d="M-375.6,317.9c0.8,1.2,0.8,1.7-0.5,1.8C-375.9,319.1-375.8,318.7-375.6,317.9z"/>
	<path id="XMLID_30_" class="st0" d="M-245.2,450c0,0.5,0,1,0,1.5c-0.1,0-0.1,0-0.2,0c0-0.5,0-1,0-1.6
		C-245.3,450-245.3,450-245.2,450z"/>
</g>
</svg>
