<?xml version="1.0" encoding="utf-8"?>
<!-- Generator: Adobe Illustrator 19.0.0, SVG Export Plug-In . SVG Version: 6.00 Build 0)  -->
<svg version="1.1" id="Layer_1" xmlns="http://www.w3.org/2000/svg" xmlns:xlink="http://www.w3.org/1999/xlink" x="0px" y="0px"
	 viewBox="0 0 114.2 69.8" style="enable-background:new 0 0 114.2 69.8;" xml:space="preserve">
<style type="text/css">
	.st0{fill:#FFFFFF;}
</style>
<g id="XMLID_27_">
	<path id="XMLID_71_" class="st0" d="M29,62.8c0-1.2,0.5-2.2,0.9-3.2c0.6-1.7,0.6-1.7-1.2-1.7c-1.2,0-2.4-0.2-3.5-0.7
		c-1.5-0.8-2.2-2.1-2.7-3.6c-0.9-3-0.5-5.9,0.1-8.9c0.7-3.5,1.6-6.9,3-10.2c0.3-0.7,0.8-1.8,1.5-1.5c0.7,0.2,0.3,1.3,0.1,2
		c-0.9,3.1-1.6,6.2-1.5,9.5c0.1,3.1,2,5.1,5.1,5.2c0.4,0,0.9,0,1.3,0c1.1,0,1.9-0.4,2.5-1.4c1.2-2.1,2.6-4.2,3.4-6.6
		c0.4-1.5,0.8-2.9,0.7-4.4c-0.1-4.5,1.5-8.6,2.7-12.8c0.1-0.2,0.2-0.3,0.3-0.5c0,0,0.1,0,0.3-0.1c0.3,0.4,0,0.8,0,1.2
		c-0.3,3.9-0.1,7.8-0.9,11.6c-0.2,0.9-0.5,1.7-0.8,2.5c-0.1,0.3-0.4,0.7,0,0.9c0.4,0.2,0.5-0.2,0.7-0.4c1.8-1.9,3.9-3.4,6.4-4.3
		c1.3-0.5,2.6-0.5,3.6,0.5c1,0.9,1,2.2,0.6,3.4c-0.9,3.5-2.6,6.7-5,9.4c-0.2,0.2-0.3,0.3-0.5,0.5c-0.2,0.2-0.2,0.4-0.1,0.7
		c0.2,0.3,0.4,0.1,0.6-0.1c1.3-1,2.7-1.9,3.9-3c1.9-1.8,4-3.5,5.5-5.8c0.2-0.4,0.4-0.7,0.6-1.2c0.7-2,3-3.1,4.9-1.8
		c0.9,0.6,1.7,0.2,2.7-0.9c0.5-0.6,0.7-1.3,1-1.9c0.1-0.1,0.1-0.3,0.3-0.3c0.3,0,0.3,0.2,0.3,0.4c0.3,2.7-1.9,6.5-4.4,7.7
		c-0.7,0.3-1.2,0.2-1.8-0.2c-1.3-0.8-1.9-0.7-2.7,0.5c-2.8,3.8-6.2,6.8-10.3,9.2c-4.4,2.5-9.1,4.2-14.1,4.9c-0.7,0.1-1.2,0.4-1.5,1
		c-0.5,1.1-1,2.2-1.5,3.2C29.7,62.2,29.7,62.6,29,62.8z M45.3,41c-0.6,0.1-1.2,0.2-1.8,0.4c-3.3,1.4-5.3,4.2-7.5,6.8
		c-0.3,0.3-0.2,0.7,0.4,0.7c0.7-0.1,1.4-0.2,2.1-0.4c3.2-1,6.2-2.5,8.8-4.6c0.5-0.4,1.4-0.8,1.2-1.5c-0.2-0.8-1.1-1.1-1.9-1.3
		C46.2,41.2,45.8,41.1,45.3,41z"/>
	<path id="XMLID_70_" class="st0" d="M72.8,53.1c-1,0.1-1.9,0-2.1-1.1c-0.3-1.1,0.5-1.8,1.3-2.3c2.2-1.3,4.6-2.1,6.7-3.7
		c1.1-0.8,2-1.8,2.8-2.9c0.6-0.8,0.2-1.1-0.6-1.1c-0.7,0-1.4-0.1-2.1-0.3c-2-0.4-2.9-2.2-2-4c1.1-2.2,2.1-4.4,3.6-6.4
		c1.4-1.9,3.5-1.8,4.8,0.2c0.7,1.1,0.7,2.3,0.7,3.6c0,0.4-0.2,0.9,0.3,1.1c0.5,0.2,0.6-0.4,0.9-0.6c1.8-1.6,2.3-3.7,2.2-6
		c-0.1-2.5,1.1-4.6,2-6.8c0.4-0.9,0.7-1.9,1.3-2.7c0.2-0.2,0.3-0.5,0.6-0.4c0.3,0.1,0.3,0.4,0.3,0.6c-0.2,6.1-1.1,12.1-5.1,17.1
		c-1,1.3-2,2.7-3.4,3.7c-0.5,0.3-0.8,1-1.1,1.6c-1.8,3.4-4,6.5-7.1,8.9C75.7,52.5,74.3,53,72.8,53.1z"/>
	<path id="XMLID_69_" class="st0" d="M101.5,30.8c-0.1,3-1.6,6.7-3.6,10.2c-1.3,2.2-2.9,4-5,5.3c-1.1,0.7-2.3,1.1-3.5,1.4
		c-0.5,0.1-1,0.3-1.3-0.3c-0.3-0.5-0.1-1,0.3-1.4c1.1-1.2,2.3-2.1,3.5-3.1c1.4-1.2,2.9-2.4,4.2-3.7c1.9-1.9,2-2.7,0.6-5.4
		c-0.6-1.1-1.5-2-2.6-2.7c-0.5-0.3-0.5-0.6-0.3-1.1c1-2.1,1.8-4.2,3.1-6.2c0.8-1.3,1.1-1.3,2.2-0.3
		C100.8,25.1,101.5,26.9,101.5,30.8z"/>
	<path id="XMLID_68_" class="st0" d="M39.7,20.4c-0.1,0-0.3-0.1-0.6-0.2c-1.5-0.8-3.1-1.6-4.8-1.9c-0.7-0.1-0.8-0.4-0.4-1
		c2-3.2,3.9-6.5,5.8-9.7c0.4-0.7,0.9-0.8,1.7-0.5c1.7,0.6,3.2,1.5,4.6,2.6c0.9,0.7,1.4,1.6,0.8,2.7c-1.4,2.9-3.3,5.4-5.7,7.6
		C40.7,20.2,40.3,20.4,39.7,20.4z"/>
	<path id="XMLID_67_" class="st0" d="M74.1,13.5c-0.1,0.9-0.3,1.8-0.4,2.7c-0.4,4.3-0.9,8.6-1.2,12.9c-0.4,4.7-1.8,9.1-3.9,13.3
		c-0.7,1.4-1.5,2.6-2.6,3.7c-1.4,1.5-3.2,1.8-5.1,2.1c-0.3,0.1-0.8,0.2-1-0.2c-0.2-0.5,0.3-0.7,0.5-1c1.5-1.4,3.3-2.5,4.7-4
		c2.5-2.6,4-5.6,4.5-9.3c0.4-3.1,0.3-6.3,0.6-9.4c0.4-3.7,1.6-7.1,3.1-10.4C73.5,13.7,73.6,13.5,74.1,13.5z"/>
	<path id="XMLID_66_" class="st0" d="M107.9,14.9c0,1.3-0.4,2.5-0.5,3.8c-0.3,2.5-0.4,5.1-0.6,7.6c-0.4,6.1-1.5,12-4.3,17.5
		c-0.5,1.1-1.2,2.1-1.9,3c-1.4,1.9-3.5,2.5-5.7,2.9c-0.4,0.1-0.9,0.1-1-0.3c-0.1-0.4,0.3-0.6,0.5-0.9c1.4-1.3,3-2.3,4.4-3.7
		c3.4-3.3,4.8-7.3,5-12c0.1-4,0.1-8.1,1.4-11.9c0.6-1.8,1.3-3.6,2-5.4C107.2,15.2,107.4,15,107.9,14.9z"/>
	<path id="XMLID_65_" class="st0" d="M51.7,25.3c1.1,0.2,2.2,0.5,3.1,1.2c0.7,0.6,1,0.4,1.4-0.2c0.6-0.8,1.2-1.6,1.8-2.4
		c0.6-0.8,1.3-0.9,2.2-0.4c1.8,1,2.2,2.4,1.2,4.1c-0.7,1.2-1.7,2.3-2.8,3.2c-0.6,0.5-1.1,0.5-1.8,0.1c-0.1-0.1-0.3-0.2-0.4-0.3
		c-2-1-2-1-3.4,0.8c-0.4,0.6-1,1.1-1.5,1.5c-0.5,0.4-1,0.5-1.6,0.1c-0.8-0.5-1.6-0.8-2.5-1.1c-0.6-0.2-0.7-0.5-0.3-1
		c1.1-1.6,2.3-3.3,3.4-4.9C50.8,25.7,51,25.2,51.7,25.3z"/>
	<path id="XMLID_64_" class="st0" d="M79.7,56.4c1.1,0.2,2,0.5,2.8,1.1c0.8,0.7,1.3,0.5,1.9-0.3c0.6-0.8,1.3-1.6,1.9-2.4
		c0.3-0.4,0.6-0.5,1-0.5c2,0.2,3.3,2.4,2.3,4.1c-0.8,1.4-1.9,2.6-3.1,3.6c-0.5,0.4-0.9,0.3-1.4,0.1c-3.2-1.7-2.5-1.6-4.4,0.9
		c-1,1.4-1.8,1.6-3.4,0.8c-0.2-0.1-0.4-0.2-0.6-0.3c-1.9-0.8-1.9-0.8-0.8-2.5c0.9-1.4,1.9-2.7,2.9-4.1C79,56.6,79.2,56.3,79.7,56.4z
		"/>
	<path id="XMLID_63_" class="st0" d="M108.9,37.3c0.2,1.7-0.6,3-1.1,4.4c-1.1,3.5-2.4,7-4.6,10.1c-1.2,1.7-2.5,3.2-4.1,4.6
		c-1.1,1-2.5,1.3-3.9,1.7c-0.8,0.2-1.6-0.1-2-0.8c-0.4-0.7-0.1-1.5,0.4-2.1c1.3-1.6,3.1-2.4,4.8-3.4c3.3-2,5.8-4.7,7.3-8.4
		c0.7-1.6,1.4-3.2,2.1-4.8C108.1,38.1,108.2,37.6,108.9,37.3z"/>
	<path id="XMLID_62_" class="st0" d="M21.2,38.9c-0.2,2.1-0.9,4-1.6,5.9c-1,2.7-2,5.4-3.5,7.8c-1.2,2-2.8,3.6-4.5,5.1
		c-1.1,1-2.6,1.4-4,1.8c-0.8,0.2-1.5-0.1-1.9-0.7c-0.4-0.6-0.3-1.4,0.2-2c0.9-1.1,2-2,3.2-2.6c5.1-2.5,8.3-6.5,10.1-11.8
		C19.7,41.1,20.1,39.7,21.2,38.9z"/>
	<path id="XMLID_61_" class="st0" d="M69,18.2c0,0.8-0.4,1.2-0.7,1.7c-0.7,1.3-1.6,2.5-2.7,3.5c-0.6,0.5-1.2,0.8-2,0.2
		c-0.7-0.5-1.5-0.7-2.3-0.9c-0.6-0.2-0.8-0.5-0.5-1.1c1.2-1.9,2.3-3.9,3.5-5.8c0.2-0.3,0.4-0.5,0.7-0.5c0.9,0,3.5,1.6,3.9,2.5
		C69,17.9,69,18.2,69,18.2z"/>
</g>
</svg>
